#N canvas 480 32 768 778 10;
#X declare -path ./bop;
#X msg 140 109 \; pd dsp \$1;
#X msg 140 86 1;
#X obj 140 63 loadbang;
#X obj 40 170 s calibrate;
#X obj 40 100 bng 56 250 50 0 empty empty calibrate 0 27 0 10 #fcfcfc
#000000 #000000;
#X obj 40 40 loadbang;
#X obj 40 70 del 5000;
#X obj 140 40 declare -path ./bop;
#N canvas 0 22 450 300 read-sensors 0;
#X obj 40 80 loadbang;
#X msg 40 107 1;
#X text 110 440 pin 4/A5;
#X obj 40 437 s plant1;
#X obj 70 410 s plant2;
#X obj 100 380 s plant3;
#X text 130 410 pin 15/A8;
#X obj 40 215 oscparse;
#X obj 40 242 route list;
#X obj 40 296 route touches;
#X obj 40 188 mrpeach/slipdec 65536;
#X msg 94 134 close;
#X obj 40 161 comport 1 115200;
#X msg 40 134 open \$1;
#X obj 40 323 t b l;
#X obj 40 269 zl slice 1;
#X obj 40 350 unpack 0 0 0 0 0 0 0 0, f 32;
#X text 160 380 pin 12/A11;
#X connect 0 0 1 0;
#X connect 1 0 13 0;
#X connect 7 0 8 0;
#X connect 8 0 15 0;
#X connect 9 0 14 0;
#X connect 10 0 7 0;
#X connect 11 0 12 0;
#X connect 12 0 10 0;
#X connect 13 0 12 0;
#X connect 14 1 16 0;
#X connect 15 1 9 0;
#X connect 16 0 3 0;
#X connect 16 1 4 0;
#X connect 16 3 5 0;
#X restore 140 170 pd read-sensors;
#N canvas 96 0 1728 1052 the-plants-bop-sketch 0;
#X text 1400 1840 comment;
#X obj 269 1333 bop.reverb;
#A saved 0.866848 0.441576 1.8913 0.0902829 1 0 0;
#X obj 270 1505 bop.mix;
#A saved 0 1.06968 0;
#X obj 298 489 bop.noteslider;
#A saved 1.37772 0 3.70624;
#X obj 299 591 bop.notefx;
#A saved 0 -1.7561 0 0 100 127 1 0 0;
#X msg 501 403 noteslider \$1;
#X obj 298 755 bop.synth;
#A saved 0.0406159 0.798913 0.288043 1 0.206522 0 0 0 0.01 0.01 0.01
1 0 0.01 0.01;
#X floatatom 321 273 5 0 0 0 - - -, f 5;
#X obj 320 222 sub.plants.filter-and-scale;
#X obj 320 171 r plant3;
#X obj 269 1230 bop.mix;
#A saved 0 0.76614 0;
#X floatatom 340 201 5 0 0 0 - - -, f 5;
#X obj 269 1621 dac~, f 34;
#X obj 318 109 hsl 128 15 0 1 0 0 empty empty empty -2 -8 0 10 #8cc6ff
#000000 #000000 0 1;
#X obj 320 141 s plant3-slider;
#X obj 206 221 r plant3-slider;
#X obj 982 38 bop.palette;
#X msg 541 542 saw \$1;
#X obj 696 625 * -1;
#X obj 696 647 + 1;
#X msg 590 595 square \$1;
#X floatatom 501 377 5 0 0 0 - - -, f 5;
#X obj 501 341 expr if($f1 < 0.07 \, 0 \, 0.07);
#X obj 192 1194 bp~ 500 5;
#X floatatom 216 1129 10 0 0 0 - - -, f 10;
#X obj 216 1149 expr if($f1 < 0 \, 0 \, $f1);
#X floatatom 217 1171 30 0 0 0 - - -, f 30;
#X obj 217 1107 * 16000;
#X floatatom 259 1194 5 0 0 0 - - -, f 5;
#X obj 697 669 scale 0.07 1 0 1;
#X floatatom 697 693 5 0 0 0 - - -, f 5;
#X obj 542 518 scale 0.07 1 0 1;
#X msg 715 714 triangle \$1;
#X msg 697 735 sine \$1;
#X msg 604 619 noise \$1;
#X obj 590 566 scale 0.07 1 0 0.25;
#X text 578 373 Trigger a single note;
#X text 727 586 Using further slider action to modulate the sound;
#X text 421 1149 Maybe a filter;
#X connect 1 0 2 0;
#X connect 1 1 2 1;
#X connect 2 0 12 0;
#X connect 2 1 12 1;
#X connect 3 2 4 2;
#X connect 4 2 6 2;
#X connect 5 0 3 3;
#X connect 6 0 23 0;
#X connect 7 0 22 0;
#X connect 7 0 27 0;
#X connect 7 0 31 0;
#X connect 7 0 18 0;
#X connect 7 0 35 0;
#X connect 8 0 7 0;
#X connect 9 0 11 0;
#X connect 9 0 8 0;
#X connect 10 0 1 0;
#X connect 10 1 1 1;
#X connect 13 0 14 0;
#X connect 15 0 7 0;
#X connect 17 0 6 3;
#X connect 18 0 19 0;
#X connect 19 0 29 0;
#X connect 20 0 6 3;
#X connect 21 0 5 0;
#X connect 22 0 21 0;
#X connect 23 0 10 0;
#X connect 23 0 10 1;
#X connect 24 0 25 0;
#X connect 25 0 26 0;
#X connect 26 0 23 1;
#X connect 27 0 24 0;
#X connect 28 0 23 2;
#X connect 29 0 30 0;
#X connect 30 0 32 0;
#X connect 30 0 33 0;
#X connect 31 0 17 0;
#X connect 33 0 6 3;
#X connect 34 0 6 3;
#X connect 35 0 34 0;
#X connect 35 0 20 0;
#X restore 40 260 pd the-plants-bop-sketch;
#X connect 1 0 0 0;
#X connect 2 0 1 0;
#X connect 4 0 3 0;
#X connect 5 0 6 0;
#X connect 6 0 4 0;
