#N canvas 751 32 975 1057 10;
#X obj 306 120 cnv 15 450 90 empty empty empty 20 12 0 14 #caffcb #404040 0;
#X obj 503 36 vradio 15 0 1 4 from-select-instrument to-select-instrument empty 0 -8 0 10 #fcfcfc #000000 #000000 0;
#X obj 28 114 hsl 250 30 0 1 0 0 plant1-slider empty plant1-slider -2 -8 0 10 #c6ffc7 #000000 #000000 0 1;
#X obj 29 173 hsl 250 30 0 1 0 0 plant2-slider empty plant2-slider -2 -8 0 10 #acffac #000000 #000000 0 1;
#X obj 72 34 cnv 15 306 49 empty empty -={\ THE\ PLANTS\ }=- 20 12 0 30 #fcffff #17a25f 0;
#X obj 306 352 cnv 15 450 160 empty empty empty 20 12 0 14 #ffc7c6 #404040 0;
#X obj 671 435 s calibrate;
#X obj 661 386 loadbang;
#X obj 671 411 del 5000;
#N canvas 76 241 569 645 read-sensors 0;
#X obj 40 80 loadbang;
#X msg 40 107 1;
#X text 105 554 pin 4/A5;
#X obj 35 551 s plant1;
#X obj 62 475 s plant2;
#X text 122 475 pin 15/A8;
#X obj 40 215 oscparse;
#X obj 40 242 route list;
#X obj 40 346 route touches;
#X obj 40 188 mrpeach/slipdec 65536;
#X msg 94 134 close;
#X obj 40 161 comport 1 115200;
#X msg 40 134 open \$1;
#X obj 40 373 t b l;
#X obj 40 400 unpack 0 0 0 0 0 0 0 0, f 32;
#X msg 74 110 5;
#X obj 35 520 sub.plants.filter-and-scale;
#X obj 64 443 sub.plants.filter-and-scale;
#X obj 39 280 list split 1;
#X obj 55 308 list trim;
#X connect 0 0 1 0;
#X connect 1 0 12 0;
#X connect 6 0 7 0;
#X connect 7 0 18 0;
#X connect 8 0 13 0;
#X connect 9 0 6 0;
#X connect 10 0 11 0;
#X connect 11 0 9 0;
#X connect 12 0 11 0;
#X connect 13 1 14 0;
#X connect 14 0 16 0;
#X connect 14 1 17 0;
#X connect 15 0 12 0;
#X connect 16 0 3 0;
#X connect 17 0 4 0;
#X connect 18 1 19 0;
#X connect 19 0 8 0;
#X restore 443 392 pd read-sensors;
#X obj 333 180 plants.bass 0;
#X obj 428 179 plants.tenor 1;
#X obj 525 180 plants.alto 2;
#X obj 622 180 plants.soprano 3;
#N canvas 383 224 1087 543 keybindings 0;
#X obj 55 44 key;
#X obj 235 74 sel 49 50 51 52;
#X obj 236 144 s to-select-instrument;
#X msg 236 108 0;
#X msg 268 107 1;
#X msg 300 109 2;
#X msg 331 108 3;
#X obj 89 44 inlet;
#X obj 56 88 spigot;
#X text 345 71 1 2 3 4;
#X obj 466 127 s shutdown;
#X obj 538 126 s update;
#X obj 605 126 s save;
#X floatatom 113 128 5 0 0 0 - - - 0;
#X obj 467 97 bng 16 250 50 0 empty empty empty 0 -8 0 10 #fcfcfc #000000 #000000;
#X obj 605 102 bng 16 250 50 0 empty empty empty 0 -8 0 10 #fcfcfc #000000 #000000;
#X obj 538 102 bng 16 250 50 0 empty empty empty 0 -8 0 10 #fcfcfc #000000 #000000;
#X obj 626 235 r save;
#X obj 226 284 bng 16 250 50 0 empty empty empty 0 -8 0 10 #fcfcfc #000000 #000000;
#X obj 228 258 loadbang;
#X obj 52 126 s keypad;
#X obj 233 31 r keypad;
#X obj 468 31 r keypad;
#X obj 53 254 r shutdown;
#X obj 347 258 r update;
#X obj 49 282 bng 16 250 50 0 empty empty empty 0 -8 0 10 #fcfcfc #000000 #000000;
#X obj 504 290 bng 16 250 50 0 empty empty empty 0 -8 0 10 #fcfcfc #000000 #000000;
#X obj 506 264 loadbang;
#X obj 346 286 bng 16 250 50 0 empty empty empty 0 -8 0 10 #fcfcfc #000000 #000000;
#X text 718 233 [savetofile newpatch.pd home(or full path)/my/directory( | [send pd-mypatch.pd];
#X obj 626 266 bng 16 250 50 0 empty empty empty 0 -8 0 10 #fcfcfc #000000 #000000;
#X obj 468 71 sel 48 42 43, f 28;
#X text 676 70 0 * +;
#X obj 47 308 sub.watchfile.l2ork cmd.shutdown.tmp;
#X obj 340 320 sub.watchfile.l2ork cmd.update.tmp;
#X obj 626 317 sub.save.l2ork;
#X connect 0 0 8 0;
#X connect 1 0 3 0;
#X connect 1 1 4 0;
#X connect 1 2 5 0;
#X connect 1 3 6 0;
#X connect 3 0 2 0;
#X connect 4 0 2 0;
#X connect 5 0 2 0;
#X connect 6 0 2 0;
#X connect 7 0 8 1;
#X connect 8 0 13 0;
#X connect 8 0 20 0;
#X connect 14 0 10 0;
#X connect 15 0 12 0;
#X connect 16 0 11 0;
#X connect 17 0 30 0;
#X connect 18 0 33 1;
#X connect 19 0 18 0;
#X connect 21 0 1 0;
#X connect 22 0 31 0;
#X connect 23 0 25 0;
#X connect 24 0 28 0;
#X connect 25 0 33 0;
#X connect 26 0 34 1;
#X connect 27 0 26 0;
#X connect 28 0 34 0;
#X connect 30 0 35 0;
#X connect 31 0 14 0;
#X connect 31 1 16 0;
#X connect 31 2 15 0;
#X restore 328 460 pd keybindings;
#X obj 428 132 r from-select-instrument;
#X msg 660 457 \; pd dsp 1;
#X obj 328 416 tgl 24 1 empty empty Keypad 30 10 0 10 #fcfcfc #000000 #000000 1 1;
#X obj 573 409 bng 56 250 50 0 calibrate calibrate calibrate 0 27 0 10 #fcfcfc #000000 #000000;
#X floatatom 503 429 5 0 0 0 plant1: plant1 - 0;
#X floatatom 503 453 5 0 0 0 plant2: plant2 - 0;
#X text 520 37 [1] bass;
#X text 520 52 [2] tenor;
#X text 520 67 [3] alto;
#X text 520 82 [4] soprano;
#X text 620 37 [0] SHUTDOWN;
#X text 620 55 [+] SAVE;
#X text 620 73 [*] UPDATE;
#X obj 26 586 dac~, f 14;
#X obj 26 248 bop/bop.reverb;
#A saved 0.669565 0.402174 2 0.831522 0.836957 0 0;
#X obj 26 217 catch~ left;
#X obj 98 217 catch~ right;
#X obj 314 227 cnv 15 450 90 empty empty empty 20 12 0 14 #caffcb #404040 0;
#X obj 436 239 r from-select-instrument;
#X obj 326 287 plants.drone.1 0;
#X obj 436 286 plants.drone.2 1;
#X obj 545 286 plants.drone.3 2;
#X obj 651 286 plants.drone.4 3;
#X obj 610 239 plants.drone-control;
#X obj 328 370 loadbang;
#X msg 328 391 1;
#N canvas 92 129 752 528 (subpatch) 0;
#N canvas 329 161 625 417 vu 0;
#X obj 59 129 env~ 1024;
#X obj 161 111 abs~;
#X obj 161 213 snapshot~;
#X obj 161 256 rmstodb;
#X obj 161 21 inlet~;
#X obj 161 288 - 100;
#X obj 59 287 - 100;
#X obj 59 361 outlet;
#X obj 161 361 outlet;
#X text 344 307 Check the help file of env~ and slop~ for more details., f 31;
#X obj 239 89 expr 1000 / $f1;
#X floatatom 239 117 5 0 0 0 - - - 0;
#X obj 161 146 slop~ 0 0 0 0 1e+09;
#X floatatom 239 57 5 0 0 0 - - - 0;
#X text 359 89 convert to hz;
#X text 282 118 hz;
#X text 284 57 peak decay time in ms;
#X obj 59 171 t f b;
#X text 345 132 The env~ object is dedicated to RMS analysis. Its output is in dB (0-100 range \, pd style) but needs to be converted to dBFS (and we do that by simply subtracting 100)., f 31;
#X text 345 225 The slop~ object is used here for peak detection. We need to convert the output to dB with rmstodb and also subtract by 100 to convert it to dBFS., f 31;
#X msg 289 39 500;
#X obj 342 20 loadbang;
#X connect 0 0 17 0;
#X connect 1 0 12 0;
#X connect 2 0 3 0;
#X connect 3 0 5 0;
#X connect 4 0 0 0;
#X connect 4 0 1 0;
#X connect 5 0 8 0;
#X connect 6 0 7 0;
#X connect 10 0 11 0;
#X connect 11 0 12 3;
#X connect 12 0 2 0;
#X connect 13 0 10 0;
#X connect 17 0 6 0;
#X connect 17 1 2 0;
#X connect 20 0 13 0;
#X connect 21 0 20 0;
#X restore 104 35 pd vu;
#N canvas 329 161 625 417 vu 0;
#X obj 59 129 env~ 1024;
#X obj 161 111 abs~;
#X obj 161 213 snapshot~;
#X obj 161 256 rmstodb;
#X obj 161 21 inlet~;
#X obj 161 288 - 100;
#X obj 59 287 - 100;
#X obj 59 361 outlet;
#X obj 161 361 outlet;
#X text 344 307 Check the help file of env~ and slop~ for more details., f 31;
#X obj 239 89 expr 1000 / $f1;
#X floatatom 239 117 5 0 0 0 - - - 0;
#X obj 161 146 slop~ 0 0 0 0 1e+09;
#X floatatom 239 57 5 0 0 0 - - - 0;
#X text 359 89 convert to hz;
#X text 282 118 hz;
#X text 284 57 peak decay time in ms;
#X obj 59 171 t f b;
#X text 345 132 The env~ object is dedicated to RMS analysis. Its output is in dB (0-100 range \, pd style) but needs to be converted to dBFS (and we do that by simply subtracting 100)., f 31;
#X text 345 225 The slop~ object is used here for peak detection. We need to convert the output to dB with rmstodb and also subtract by 100 to convert it to dBFS., f 31;
#X msg 289 39 500;
#X obj 342 20 loadbang;
#X connect 0 0 17 0;
#X connect 1 0 12 0;
#X connect 2 0 3 0;
#X connect 3 0 5 0;
#X connect 4 0 0 0;
#X connect 4 0 1 0;
#X connect 5 0 8 0;
#X connect 6 0 7 0;
#X connect 10 0 11 0;
#X connect 11 0 12 3;
#X connect 12 0 2 0;
#X connect 13 0 10 0;
#X connect 17 0 6 0;
#X connect 17 1 2 0;
#X connect 20 0 13 0;
#X connect 21 0 20 0;
#X restore 152 38 pd vu;
#X obj 84 9 inlet~;
#X obj 192 8 inlet~;
#X obj 105 107 vu 15 160 empty empty -1 -8 0 12 #404040 #000000 0 0;
#X obj 133 107 vu 15 160 empty empty -1 -8 0 12 #404040 #000000 1 0;
#X obj 84 347 outlet~;
#X obj 194 344 outlet~;
#X connect 0 0 4 0;
#X connect 0 1 4 1;
#X connect 1 0 5 0;
#X connect 1 1 5 1;
#X connect 2 0 0 0;
#X connect 2 0 6 0;
#X connect 3 0 1 0;
#X connect 3 0 7 0;
#X coords 0 -1 1 1 85 180 2 100 100;
#X restore 26 388 pd;
#X f 13;
#X connect 7 0 8 0;
#X connect 7 0 16 0;
#X connect 8 0 6 0;
#X connect 15 0 10 0;
#X connect 15 0 11 0;
#X connect 15 0 12 0;
#X connect 15 0 13 0;
#X connect 17 0 14 0;
#X connect 29 0 41 0;
#X connect 29 1 41 1;
#X connect 30 0 29 0;
#X connect 31 0 29 1;
#X connect 33 0 34 0;
#X connect 33 0 35 0;
#X connect 33 0 36 0;
#X connect 33 0 37 0;
#X connect 39 0 40 0;
#X connect 40 0 17 0;
#X connect 41 0 28 0;
#X connect 41 1 28 1;
