#N canvas 501 122 807 403 10;
#X obj 318 120 cnv 15 450 90 empty empty empty 20 12 0 14 #caffcb #404040 0;
#X obj 62 252 vradio 15 0 1 4 from-select-instrument to-select-instrument empty 0 -8 0 10 #fcfcfc #000000 #000000 1;
#X obj 51 124 hsl 250 30 0 1 0 0 plant1-slider empty plant1-slider -2 -8 0 10 #c6ffc7 #000000 #000000 0 1;
#X obj 51 173 hsl 250 30 0 1 0 0 plant2-slider empty plant2-slider -2 -8 0 10 #acffac #000000 #000000 0 1;
#X obj 224 34 cnv 15 306 49 empty empty -={\ THE\ PLANTS\ }=- 20 12 0 30 #fcffff #17a25f 0;
#X obj 319 228 cnv 15 450 120 empty empty empty 20 12 0 14 #ffc7c6 #404040 0;
#X obj 689 290 s calibrate;
#X obj 679 241 loadbang;
#X obj 689 266 del 5000;
#N canvas 76 241 533 492 read-sensors 0;
#X obj 40 80 loadbang;
#X msg 40 107 1;
#X text 110 420 pin 4/A5;
#X obj 40 417 s plant1;
#X obj 70 390 s plant2;
#X text 130 390 pin 15/A8;
#X obj 40 215 oscparse;
#X obj 40 242 route list;
#X obj 40 296 route touches;
#X obj 40 188 mrpeach/slipdec 65536;
#X msg 94 134 close;
#X obj 40 161 comport 1 115200;
#X msg 40 134 open \$1;
#X obj 40 323 t b l;
#X obj 40 269 zl slice 1;
#X obj 40 350 unpack 0 0 0 0 0 0 0 0, f 32;
#X msg 74 110 5;
#X obj 217 270 list split;
#X text 129 269 replace with:;
#X connect 0 0 1 0;
#X connect 1 0 12 0;
#X connect 6 0 7 0;
#X connect 7 0 14 0;
#X connect 8 0 13 0;
#X connect 9 0 6 0;
#X connect 10 0 11 0;
#X connect 11 0 9 0;
#X connect 12 0 11 0;
#X connect 13 1 15 0;
#X connect 14 1 8 0;
#X connect 15 0 3 0;
#X connect 15 1 4 0;
#X connect 16 0 12 0;
#X restore 461 247 pd read-sensors;
#X obj 344 180 plants.bass 0;
#X obj 440 179 plants.tenor 1;
#X obj 537 180 plants.alto 2;
#X obj 634 180 plants.soprano 3;
#N canvas 373 81 561 750 keybindings 1;
#X obj 216 84 key;
#X obj 42 239 sel 49 50 51 52;
#X obj 43 309 s to-select-instrument;
#X msg 43 273 0;
#X msg 75 272 1;
#X msg 107 274 2;
#X msg 138 273 3;
#X obj 303 237 sel 48 115 117;
#X obj 250 84 inlet;
#X obj 217 128 spigot;
#X text 152 236 1 2 3 4;
#X text 400 236 0;
#X obj 237 630 file handle;
#X msg 326 592 close;
#X text 373 540 open file for writing (Create (or trunCate) mode), f 27;
#X obj 311 654 print INFO;
#X text 374 587 close file, f 5;
#X msg 232 547 open /tmp/test.c c;
#X obj 46 646 print;
#X obj 56 425 bng 16 250 50 0 empty empty empty 0 -8 0 10 #fcfcfc #000000 #000000;
#X obj 58 483 file patchpath;
#X obj 55 572 makefilename open\ %s/shutdown.tmp\ c;
#X connect 0 0 9 0;
#X connect 1 0 3 0;
#X connect 1 1 4 0;
#X connect 1 2 5 0;
#X connect 1 3 6 0;
#X connect 3 0 2 0;
#X connect 4 0 2 0;
#X connect 5 0 2 0;
#X connect 6 0 2 0;
#X connect 8 0 9 1;
#X connect 9 0 7 0;
#X connect 9 0 1 0;
#X connect 12 1 15 0;
#X connect 13 0 12 0;
#X connect 17 0 12 0;
#X connect 19 0 20 0;
#X connect 20 0 21 0;
#X connect 21 0 18 0;
#X connect 21 0 12 0;
#X restore 340 300 pd keybindings;
#X obj 440 132 r from-select-instrument;
#X msg 678 312 \; pd dsp 1;
#X obj 340 256 tgl 24 1 empty empty Keypad 30 10 0 10 #fcfcfc #000000 #000000 1 1;
#X obj 591 264 bng 56 250 50 0 calibrate calibrate calibrate 0 27 0 10 #fcfcfc #000000 #000000;
#X floatatom 521 284 5 0 0 0 plant1: plant1 - 0;
#X floatatom 521 308 5 0 0 0 plant2: plant2 - 0;
#X text 79 252 [1] bass;
#X text 79 267 [2] tenor;
#X text 79 282 [3] alto;
#X text 79 297 [4] soprano;
#X text 179 252 [0] SHUTDOWN;
#X text 179 270 [+] SAVE;
#X text 179 288 [*] UPDATE;
#X connect 7 0 8 0;
#X connect 7 0 16 0;
#X connect 8 0 6 0;
#X connect 15 0 10 0;
#X connect 15 0 11 0;
#X connect 15 0 12 0;
#X connect 15 0 13 0;
#X connect 17 0 14 0;
