#N canvas 480 32 768 778 10;
#X declare -path ./bop;
#X msg 140 109 \; pd dsp \$1;
#X msg 140 86 1;
#X obj 140 63 loadbang;
#X obj 40 170 s calibrate;
#X obj 40 100 bng 56 250 50 0 empty empty calibrate 0 27 0 10 #fcfcfc
#000000 #000000;
#X obj 40 40 loadbang;
#X obj 40 70 del 5000;
#X obj 140 40 declare -path ./bop;
#N canvas 0 22 450 300 read-sensors 0;
#X obj 40 80 loadbang;
#X msg 40 107 1;
#X text 110 440 pin 4/A5;
#X obj 40 437 s plant1;
#X obj 70 410 s plant2;
#X obj 100 380 s plant3;
#X text 130 410 pin 15/A8;
#X obj 40 215 oscparse;
#X obj 40 242 route list;
#X obj 40 296 route touches;
#X obj 40 188 mrpeach/slipdec 65536;
#X msg 94 134 close;
#X obj 40 161 comport 1 115200;
#X msg 40 134 open \$1;
#X obj 40 323 t b l;
#X obj 40 269 zl slice 1;
#X obj 40 350 unpack 0 0 0 0 0 0 0 0, f 32;
#X text 160 380 pin 12/A11;
#X connect 0 0 1 0;
#X connect 1 0 13 0;
#X connect 7 0 8 0;
#X connect 8 0 15 0;
#X connect 9 0 14 0;
#X connect 10 0 7 0;
#X connect 11 0 12 0;
#X connect 12 0 10 0;
#X connect 13 0 12 0;
#X connect 14 1 16 0;
#X connect 15 1 9 0;
#X connect 16 0 3 0;
#X connect 16 1 4 0;
#X connect 16 3 5 0;
#X restore 140 170 pd read-sensors;
#N canvas 0 32 1728 1052 the-plants-bop-sketch 0;
#X text 1400 1840 comment;
#X obj 271 1285 bop.reverb;
#A saved 0.866848 0.441576 1.8913 0.0902829 1 0 0;
#X obj 269 1530 bop.mix;
#A saved 0 1.06968 0;
#X obj 510 274 bop.noteslider;
#A saved 1.16576 0 1;
#X obj 511 376 bop.notefx;
#A saved 0 -1.7561 0 0 100 127 1 0 0;
#X msg 510 246 noteslider \$1;
#X floatatom 888 226 5 0 0 0 - - -, f 5;
#X obj 887 175 sub.plants.filter-and-scale;
#X floatatom 511 212 5 0 0 0 - - -, f 5;
#X obj 510 161 sub.plants.filter-and-scale;
#X floatatom 897 145 5 0 0 0 - - -, f 5;
#X obj 507 1080 bop.mix;
#A saved 0 0.76614 0;
#X floatatom 530 140 5 0 0 0 - - -, f 5;
#X obj 274 1702 dac~, f 34;
#X obj 887 55 hsl 128 15 0 1 0 0 empty empty empty -2 -8 0 10 #acffac
#000000 #000000 0 1;
#X obj 1097 43 bop.palette;
#X obj 749 255 scale 0.07 1 0 1;
#X obj 511 583 bop.casio;
#A saved 0 0 0 0.0141963 0.961957 0.184783 1 0.0190217 0 0 0;
#X msg 746 282 filter \$1;
#X msg 891 326 wave-1 \$1;
#X obj 894 273 * 7;
#X obj 512 81 s plant1-slider;
#X obj 512 51 hsl 128 15 0 1 0 0 empty empty empty -2 -8 0 10 #ff8080
#000000 #000000 0 1;
#X obj 510 110 r plant1;
#X obj 560 191 r plant1-slider;
#X obj 833 592 bop.harp;
#A saved 1;
#X obj 982 283 bop.noteslider;
#A saved 1.16576 0 1;
#X obj 980 396 bop.notefx;
#A saved 0 0.244286 0 0 100 127 1 0 0;
#X msg 935 253 noteslider \$1;
#X obj 887 85 s plant3-slider;
#X obj 887 115 r plant3;
#X obj 897 195 r plant3-slider;
#X connect 1 0 2 0;
#X connect 1 1 2 1;
#X connect 2 0 13 0;
#X connect 2 1 13 1;
#X connect 3 2 4 2;
#X connect 4 2 17 2;
#X connect 5 0 3 3;
#X connect 6 0 20 0;
#X connect 6 0 28 0;
#X connect 7 0 6 0;
#X connect 8 0 16 0;
#X connect 8 0 5 0;
#X connect 9 0 8 0;
#X connect 11 0 1 0;
#X connect 11 1 1 1;
#X connect 14 0 29 0;
#X connect 16 0 18 0;
#X connect 17 0 11 0;
#X connect 17 1 11 1;
#X connect 18 0 17 3;
#X connect 19 0 17 3;
#X connect 20 0 19 0;
#X connect 22 0 21 0;
#X connect 23 0 12 0;
#X connect 23 0 9 0;
#X connect 24 0 8 0;
#X connect 25 0 11 0;
#X connect 25 1 11 1;
#X connect 26 2 27 2;
#X connect 27 2 25 2;
#X connect 28 0 26 3;
#X connect 30 0 10 0;
#X connect 30 0 7 0;
#X connect 31 0 6 0;
#X restore 40 260 pd the-plants-bop-sketch;
#X connect 1 0 0 0;
#X connect 2 0 1 0;
#X connect 4 0 3 0;
#X connect 5 0 6 0;
#X connect 6 0 4 0;
