#N canvas 513 211 835 418 10;
#X obj 318 120 cnv 15 480 90 empty empty empty 20 12 0 14 #caffcb #404040 0;
#X obj 75 288 bng 56 250 50 0 calibrate calibrate calibrate 0 27 0 10 #fcfcfc #000000 #000000;
#X obj 81 123 vradio 15 0 1 4 from-select-instrument to-select-instrument empty 0 -8 0 10 #fcfcfc #000000 #000000 0;
#X floatatom 143 289 5 0 0 1 plant1 plant1 - 0;
#X floatatom 143 313 5 0 0 1 plant2 plant2 - 0;
#X obj 80 218 hsl 128 15 0 1 0 0 plant1-slider empty plant1-slider -2 -8 0 10 #ff8080 #000000 #000000 0 1;
#X obj 81 254 hsl 128 15 0 1 0 0 plant2-slider empty plant2-slider -2 -8 0 10 #acffac #000000 #000000 0 1;
#X obj 214 25 cnv 15 306 49 empty empty 🪴\ THE\ PLANTS\ 🪴 20 12 0 30 #fcffff #404040 0;
#X obj 321 229 cnv 15 300 120 empty empty empty 20 12 0 14 #ffc7c6 #404040 0;
#X obj 461 310 s calibrate;
#X obj 544 247 loadbang;
#X obj 461 281 del 5000;
#N canvas 206 206 533 492 read-sensors 0;
#X obj 40 80 loadbang;
#X msg 40 107 1;
#X text 110 420 pin 4/A5;
#X obj 40 417 s plant1;
#X obj 70 390 s plant2;
#X text 130 390 pin 15/A8;
#X obj 40 215 oscparse;
#X obj 40 242 route list;
#X obj 40 296 route touches;
#X obj 40 188 mrpeach/slipdec 65536;
#X msg 94 134 close;
#X obj 40 161 comport 1 115200;
#X msg 40 134 open \$1;
#X obj 40 323 t b l;
#X obj 40 269 zl slice 1;
#X obj 40 350 unpack 0 0 0 0 0 0 0 0, f 32;
#X msg 74 110 5;
#X obj 217 270 list split;
#X text 129 269 replace with:;
#X connect 0 0 1 0;
#X connect 1 0 12 0;
#X connect 6 0 7 0;
#X connect 7 0 14 0;
#X connect 8 0 13 0;
#X connect 9 0 6 0;
#X connect 10 0 11 0;
#X connect 11 0 9 0;
#X connect 12 0 11 0;
#X connect 13 1 15 0;
#X connect 14 1 8 0;
#X connect 15 0 3 0;
#X connect 15 1 4 0;
#X connect 16 0 12 0;
#X restore 330 303 pd read-sensors;
#X obj 344 180 plants.bass 0;
#X obj 440 179 plants.tenor 1;
#X obj 537 180 plants.alto 2;
#X obj 634 180 plants.soprano 3;
#N canvas 650 135 747 750 keybindings 0;
#X obj 40 80 key;
#X obj 41 129 sel 49 50 51 52;
#X obj 42 199 s to-select-instrument;
#X msg 42 163 0;
#X msg 74 162 1;
#X msg 106 164 2;
#X msg 137 163 3;
#X floatatom 154 86 5 0 0 0 - - - 0;
#X obj 230 130 sel 48 115 117;
#X connect 0 0 1 0;
#X connect 0 0 7 0;
#X connect 0 0 8 0;
#X connect 1 0 3 0;
#X connect 1 1 4 0;
#X connect 1 2 5 0;
#X connect 1 3 6 0;
#X connect 3 0 2 0;
#X connect 4 0 2 0;
#X connect 5 0 2 0;
#X connect 6 0 2 0;
#X restore 332 260 pd keybindings;
#X obj 440 132 r from-select-instrument;
#X msg 544 300 \; pd dsp 1;
#X text 187 121 SELECT INSTRUMENT AND SAVE[0] PATCH, f 16;
#X text 101 122 bass[1];
#X text 100 139 tenor[2];
#X text 100 154 alto[3];
#X text 100 169 soprano[4];
#X connect 10 0 11 0;
#X connect 10 0 19 0;
#X connect 11 0 9 0;
#X connect 18 0 13 0;
#X connect 18 0 14 0;
#X connect 18 0 15 0;
#X connect 18 0 16 0;
