#N canvas 626 237 748 399 10;
#X declare -path ./bop;
#X obj 289 217 cnv 15 118 64 empty empty empty 20 12 0 14 #caffcb #404040
0;
#X obj 539 182 s calibrate;
#X obj 46 311 bng 56 250 50 0 calibrate calibrate calibrate 0 27 0
10 #fcfcfc #000000 #000000;
#X obj 539 123 loadbang;
#X obj 539 153 del 5000;
#X obj 549 279 declare -path ./bop;
#N canvas 206 206 435 318 read-sensors 0;
#X obj 40 80 loadbang;
#X msg 40 107 1;
#X text 110 420 pin 4/A5;
#X obj 40 417 s plant1;
#X obj 70 390 s plant2;
#X text 130 390 pin 15/A8;
#X obj 40 215 oscparse;
#X obj 40 242 route list;
#X obj 40 296 route touches;
#X obj 40 188 mrpeach/slipdec 65536;
#X msg 94 134 close;
#X obj 40 161 comport 1 115200;
#X msg 40 134 open \$1;
#X obj 40 323 t b l;
#X obj 40 269 zl slice 1;
#X obj 40 350 unpack 0 0 0 0 0 0 0 0, f 32;
#X msg 74 110 5;
#X connect 0 0 1 0;
#X connect 1 0 12 0;
#X connect 6 0 7 0;
#X connect 7 0 14 0;
#X connect 8 0 13 0;
#X connect 9 0 6 0;
#X connect 10 0 11 0;
#X connect 11 0 9 0;
#X connect 12 0 11 0;
#X connect 13 1 15 0;
#X connect 14 1 8 0;
#X connect 15 0 3 0;
#X connect 15 1 4 0;
#X connect 16 0 12 0;
#X restore 295 325 pd read-sensors;
#N canvas 114 262 697 538 bop-sketch 0;
#X obj 50 50 plants.bass;
#X restore 301 242 pd bop-sketch;
#X obj 49 123 vradio 15 0 1 4 from-select-instrument to-select-instrument
empty 0 -8 0 10 #fcfcfc #000000 #000000 0;
#X text 69 120 bass;
#X text 68 139 tenor;
#X text 68 154 alto;
#X text 68 169 soprano;
#X text 139 121 SELECT INSTRUMENT AND SAVE PATCH, f 16;
#X msg 301 119 0;
#X obj 301 176 bng 15 250 50 0 empty empty empty 17 7 0 10 #fcfcfc
#000000 #000000;
#X obj 119 318 r plant1;
#X obj 181 317 r plant2;
#N canvas 510 37 747 750 instrument-loading 0;
#X obj 183 697 s pd-bop-sketch;
#X msg 575 644 clear;
#X msg 183 641 obj 50 50 \$1;
#X obj 40 80 key;
#X obj 41 129 sel 49 50 51 52;
#X obj 230 130 sel 115 117;
#X msg 42 163 0;
#X msg 74 162 1;
#X msg 106 164 2;
#X msg 137 163 3;
#X obj 277 476 sel 0 1 2 3, f 36;
#X obj 42 199 s to-select-instrument;
#X obj 42 226 r from-select-instrument;
#X obj 183 589 symbol;
#X msg 215 509 symbol plants.bass;
#X msg 297 531 symbol plants.tenor;
#X msg 387 551 symbol plants.alto;
#X msg 443 583 symbol plants.soprano;
#X obj 43 331 delay 2000;
#X obj 42 416 float, f 12;
#X obj 43 387 spigot 1;
#X obj 76 358 inlet;
#X obj 123 355 outlet;
#X obj 44 361 bng 15 250 50 0 empty empty empty 17 7 0 10 #fcfcfc #000000
#000000;
#X obj 44 254 t 1 b f b, f 12;
#X msg 168 310 \; pd dsp 0;
#X obj 41 446 t b b f b, f 89;
#X msg 43 517 \; pd dsp 1;
#X connect 1 0 0 0;
#X connect 2 0 0 0;
#X connect 3 0 5 0;
#X connect 3 0 4 0;
#X connect 4 0 6 0;
#X connect 4 1 7 0;
#X connect 4 2 8 0;
#X connect 4 3 9 0;
#X connect 6 0 11 0;
#X connect 7 0 11 0;
#X connect 8 0 11 0;
#X connect 9 0 11 0;
#X connect 10 0 14 0;
#X connect 10 1 15 0;
#X connect 10 2 16 0;
#X connect 10 3 17 0;
#X connect 12 0 24 0;
#X connect 13 0 2 0;
#X connect 14 0 13 1;
#X connect 15 0 13 1;
#X connect 16 0 13 1;
#X connect 17 0 13 1;
#X connect 18 0 22 0;
#X connect 18 0 23 0;
#X connect 19 0 26 0;
#X connect 20 0 19 0;
#X connect 21 0 20 1;
#X connect 23 0 20 0;
#X connect 24 1 18 0;
#X connect 24 2 19 1;
#X connect 24 3 25 0;
#X connect 26 0 27 0;
#X connect 26 1 13 0;
#X connect 26 2 10 0;
#X connect 26 3 1 0;
#X restore 301 147 pd instrument-loading;
#X text 330 120 < CANCEL INSTRUMENT LOADING;
#X floatatom 119 343 5 0 0 0 - - -, f 5;
#X floatatom 181 343 5 0 0 0 - - -, f 5;
#X obj 48 218 hsl 128 15 0 1 0 0 plant1-slider empty plant1-slider
-2 -8 0 10 #ff8080 #000000 #000000 0 1;
#X obj 49 254 hsl 128 15 0 1 0 0 plant2-slider empty plant2-slider
-2 -8 0 10 #acffac #000000 #000000 0 1;
#X obj 214 25 cnv 15 306 49 empty empty 🪴\ THE\ PLANTS\ 🪴 20
12 0 30 #fcffff #404040 0;
#X connect 3 0 4 0;
#X connect 4 0 1 0;
#X connect 14 0 18 0;
#X connect 16 0 20 0;
#X connect 17 0 21 0;
#X connect 18 0 15 0;
