#N canvas 36 108 836 681 10;
#X declare -path ./bop;
#X msg 138 244 \; pd dsp \$1;
#X msg 138 221 1;
#X obj 138 198 loadbang;
#X obj 38 305 s calibrate;
#X obj 38 235 bng 56 250 50 0 empty empty calibrate 0 27 0 10 #fcfcfc
#000000 #000000;
#X obj 38 175 loadbang;
#X obj 38 205 del 5000;
#X obj 138 175 declare -path ./bop;
#N canvas 673 396 435 318 read-sensors 0;
#X obj 40 80 loadbang;
#X msg 40 107 1;
#X text 110 440 pin 4/A5;
#X obj 40 437 s plant1;
#X obj 70 410 s plant2;
#X obj 100 380 s plant3;
#X text 130 410 pin 15/A8;
#X obj 40 215 oscparse;
#X obj 40 242 route list;
#X obj 40 296 route touches;
#X obj 40 188 mrpeach/slipdec 65536;
#X msg 94 134 close;
#X obj 40 161 comport 1 115200;
#X msg 40 134 open \$1;
#X obj 40 323 t b l;
#X obj 40 269 zl slice 1;
#X obj 40 350 unpack 0 0 0 0 0 0 0 0, f 32;
#X text 160 380 pin 12/A11;
#X msg 74 110 5;
#X connect 0 0 1 0;
#X connect 1 0 13 0;
#X connect 7 0 8 0;
#X connect 8 0 15 0;
#X connect 9 0 14 0;
#X connect 10 0 7 0;
#X connect 11 0 12 0;
#X connect 12 0 10 0;
#X connect 13 0 12 0;
#X connect 14 1 16 0;
#X connect 15 1 9 0;
#X connect 16 0 3 0;
#X connect 16 1 4 0;
#X connect 16 3 5 0;
#X connect 18 0 13 0;
#X restore 138 305 pd read-sensors;
#N canvas 423 238 697 488 bop-sketch 0;
#X obj 50 50 plants.tenor;
#X restore 37 345 pd bop-sketch;
#X obj 341 587 s pd-bop-sketch;
#X msg 733 534 clear;
#X msg 341 531 obj 50 50 \$1;
#X obj 338 30 key;
#X obj 339 79 sel 49 50 51 52;
#X obj 528 80 sel 115 117;
#X obj 41 43 vradio 15 0 1 4 from-select-instrument to-select-instrument
empty 0 -8 0 10 #fcfcfc #000000 #000000 0;
#X msg 340 113 0;
#X msg 372 112 1;
#X msg 404 114 2;
#X msg 435 113 3;
#X obj 359 381 sel 0 1 2 3, f 56;
#X text 61 40 bass;
#X text 60 59 tenor;
#X text 60 74 alto;
#X text 60 89 soprano;
#X obj 340 149 s to-select-instrument;
#X obj 340 176 r from-select-instrument;
#X text 147 53 SELECT INSTRUMENT AND SAVE PATCH, f 16;
#X obj 341 479 symbol;
#X obj 339 346 t b f b, f 66;
#X msg 360 408 symbol plants.bass;
#X msg 442 430 symbol plants.tenor;
#X msg 532 450 symbol plants.alto;
#X msg 610 477 symbol plants.soprano;
#X obj 341 231 delay 2000;
#X obj 342 204 t b f, f 12;
#X obj 340 316 float, f 12;
#X obj 341 287 spigot 1;
#X msg 387 258 0;
#X obj 340 260 bng 15 250 50 0 empty empty empty 17 7 0 10 #fcfcfc
#000000 #000000;
#X text 417 257 < CANCEL INSTRUMENT LOADING;
#X connect 1 0 0 0;
#X connect 2 0 1 0;
#X connect 4 0 3 0;
#X connect 5 0 6 0;
#X connect 6 0 4 0;
#X connect 11 0 10 0;
#X connect 12 0 10 0;
#X connect 13 0 15 0;
#X connect 13 0 14 0;
#X connect 14 0 17 0;
#X connect 14 1 18 0;
#X connect 14 2 19 0;
#X connect 14 3 20 0;
#X connect 17 0 26 0;
#X connect 18 0 26 0;
#X connect 19 0 26 0;
#X connect 20 0 26 0;
#X connect 21 0 31 0;
#X connect 21 1 32 0;
#X connect 21 2 33 0;
#X connect 21 3 34 0;
#X connect 27 0 36 0;
#X connect 29 0 12 0;
#X connect 30 0 29 0;
#X connect 30 1 21 0;
#X connect 30 2 11 0;
#X connect 31 0 29 1;
#X connect 32 0 29 1;
#X connect 33 0 29 1;
#X connect 34 0 29 1;
#X connect 35 0 40 0;
#X connect 36 0 35 0;
#X connect 36 1 37 1;
#X connect 37 0 30 0;
#X connect 38 0 37 0;
#X connect 39 0 38 1;
#X connect 40 0 38 0;
