#N canvas 324 113 836 681 10;
#X declare -path ./bop;
#X msg 627 104 \; pd dsp \$1;
#X msg 627 81 1;
#X obj 627 58 loadbang;
#X obj 302 169 s calibrate;
#X obj 302 99 bng 56 250 50 0 empty empty calibrate 0 27 0 10 #fcfcfc
#000000 #000000;
#X obj 302 39 loadbang;
#X obj 302 69 del 5000;
#X obj 627 35 declare -path ./bop;
#N canvas 206 206 435 318 read-sensors 0;
#X obj 40 80 loadbang;
#X msg 40 107 1;
#X text 110 420 pin 4/A5;
#X obj 40 417 s plant1;
#X obj 70 390 s plant2;
#X text 130 390 pin 15/A8;
#X obj 40 215 oscparse;
#X obj 40 242 route list;
#X obj 40 296 route touches;
#X obj 40 188 mrpeach/slipdec 65536;
#X msg 94 134 close;
#X obj 40 161 comport 1 115200;
#X msg 40 134 open \$1;
#X obj 40 323 t b l;
#X obj 40 269 zl slice 1;
#X obj 40 350 unpack 0 0 0 0 0 0 0 0, f 32;
#X msg 74 110 5;
#X connect 0 0 1 0;
#X connect 1 0 12 0;
#X connect 6 0 7 0;
#X connect 7 0 14 0;
#X connect 8 0 13 0;
#X connect 9 0 6 0;
#X connect 10 0 11 0;
#X connect 11 0 9 0;
#X connect 12 0 11 0;
#X connect 13 1 15 0;
#X connect 14 1 8 0;
#X connect 15 0 3 0;
#X connect 15 1 4 0;
#X connect 16 0 12 0;
#X restore 300 210 pd read-sensors;
#N canvas 114 262 697 538 bop-sketch 0;
#X obj 50 50 plants.soprano;
#X restore 44 248 pd bop-sketch;
#X obj 41 43 vradio 15 0 1 4 from-select-instrument to-select-instrument
empty 0 -8 0 10 #fcfcfc #000000 #000000 3;
#X text 61 40 bass;
#X text 60 59 tenor;
#X text 60 74 alto;
#X text 60 89 soprano;
#X text 131 41 SELECT INSTRUMENT AND SAVE PATCH, f 16;
#X msg 44 146 0;
#X obj 44 198 bng 15 250 50 0 empty empty empty 17 7 0 10 #fcfcfc #000000
#000000;
#X obj 301 248 r plant1;
#X obj 446 248 r plant2;
#N canvas 510 37 563 537 instrument-loading 0;
#X obj 43 637 s pd-bop-sketch;
#X msg 435 584 clear;
#X msg 43 581 obj 50 50 \$1;
#X obj 40 80 key;
#X obj 41 129 sel 49 50 51 52;
#X obj 230 130 sel 115 117;
#X msg 42 163 0;
#X msg 74 162 1;
#X msg 106 164 2;
#X msg 137 163 3;
#X obj 61 431 sel 0 1 2 3, f 56;
#X obj 42 199 s to-select-instrument;
#X obj 42 226 r from-select-instrument;
#X obj 43 529 symbol;
#X obj 41 396 t b f b, f 66;
#X msg 62 458 symbol plants.bass;
#X msg 144 480 symbol plants.tenor;
#X msg 234 500 symbol plants.alto;
#X msg 312 527 symbol plants.soprano;
#X obj 43 281 delay 2000;
#X obj 44 254 t b f, f 12;
#X obj 42 366 float, f 12;
#X obj 43 337 spigot 1;
#X obj 142 300 inlet;
#X obj -5 302 inlet;
#X obj 13 707 outlet;
#X connect 1 0 0 0;
#X connect 2 0 0 0;
#X connect 3 0 5 0;
#X connect 3 0 4 0;
#X connect 4 0 6 0;
#X connect 4 1 7 0;
#X connect 4 2 8 0;
#X connect 4 3 9 0;
#X connect 6 0 11 0;
#X connect 7 0 11 0;
#X connect 8 0 11 0;
#X connect 9 0 11 0;
#X connect 10 0 15 0;
#X connect 10 1 16 0;
#X connect 10 2 17 0;
#X connect 10 3 18 0;
#X connect 12 0 20 0;
#X connect 13 0 2 0;
#X connect 14 0 13 0;
#X connect 14 1 10 0;
#X connect 14 2 1 0;
#X connect 15 0 13 1;
#X connect 16 0 13 1;
#X connect 17 0 13 1;
#X connect 18 0 13 1;
#X connect 19 0 25 0;
#X connect 20 0 19 0;
#X connect 20 1 21 1;
#X connect 21 0 14 0;
#X connect 22 0 21 0;
#X connect 23 0 22 0;
#X connect 24 0 22 1;
#X restore 44 174 pd instrument-loading;
#X text 73 147 < CANCEL INSTRUMENT LOADING;
#X floatatom 301 273 5 0 0 0 - - -, f 5;
#X floatatom 446 273 5 0 0 0 - - -, f 5;
#X obj 297 354 s plant1-slider;
#X obj 297 324 hsl 128 15 0 1 0 0 empty empty empty -2 -8 0 10 #ff8080
#000000 #000000 0 1;
#X obj 444 324 hsl 128 15 0 1 0 0 empty empty empty -2 -8 0 10 #acffac
#000000 #000000 0 1;
#X obj 444 354 s plant2-slider;
#X obj 296 394 hsl 128 15 0 1 0 0 empty plant1-slider r\ plant1-slider
-2 -8 0 10 #fcfcfc #000000 #000000 0 1;
#X obj 449 395 hsl 128 15 0 1 0 0 empty plant2-slider r\ plant2-slider
-2 -8 0 10 #fcfcfc #000000 #000000 0 1;
#X connect 1 0 0 0;
#X connect 2 0 1 0;
#X connect 4 0 3 0;
#X connect 5 0 6 0;
#X connect 6 0 4 0;
#X connect 16 0 20 0;
#X connect 17 0 20 1;
#X connect 18 0 22 0;
#X connect 19 0 23 0;
#X connect 20 0 17 0;
#X connect 25 0 24 0;
#X connect 26 0 27 0;
