#N canvas -7 0 768 778 10;
#X declare -path ./bop;
#X msg 140 109 \; pd dsp \$1;
#X msg 140 86 1;
#X obj 140 63 loadbang;
#X obj 40 170 s calibrate;
#X obj 40 100 bng 56 250 50 0 empty empty calibrate 0 27 0 10 #fcfcfc
#000000 #000000;
#X obj 40 40 loadbang;
#X obj 40 70 del 5000;
#X obj 140 40 declare -path ./bop;
#N canvas 0 0 450 300 read-sensors 0;
#X obj 40 80 loadbang;
#X msg 40 107 1;
#X text 110 440 pin 4/A5;
#X obj 40 437 s plant1;
#X obj 70 410 s plant2;
#X obj 100 380 s plant3;
#X text 130 410 pin 15/A8;
#X obj 40 215 oscparse;
#X obj 40 242 route list;
#X obj 40 296 route touches;
#X obj 40 188 mrpeach/slipdec 65536;
#X msg 94 134 close;
#X obj 40 161 comport 1 115200;
#X msg 40 134 open \$1;
#X obj 40 323 t b l;
#X obj 40 269 zl slice 1;
#X obj 40 350 unpack 0 0 0 0 0 0 0 0, f 32;
#X text 160 380 pin 12/A11;
#X connect 0 0 1 0;
#X connect 1 0 13 0;
#X connect 7 0 8 0;
#X connect 8 0 15 0;
#X connect 9 0 14 0;
#X connect 10 0 7 0;
#X connect 11 0 12 0;
#X connect 12 0 10 0;
#X connect 13 0 12 0;
#X connect 14 1 16 0;
#X connect 15 1 9 0;
#X connect 16 0 3 0;
#X connect 16 1 4 0;
#X connect 16 3 5 0;
#X restore 140 170 pd read-sensors;
#N canvas 760 -8 770 787 the-plants-bop-sketch 0;
#X text 1400 1840 comment;
#X floatatom 51 221 5 0 0 0 - - -, f 5;
#X obj 280 1050 bop.reverb;
#A saved 0.866848 0.441576 1.8913 0.0251917 1 0 0;
#X obj 50 280 bop.noteslider;
#A saved 1.80163 0 3.64202;
#X msg 51 242 noteslider \$1;
#X msg 280 250 noteslider \$1;
#X obj 280 1220 bop.mix;
#A saved 0 1.06968 0;
#X obj 50 380 bop.notefx;
#A saved 0 -1.7561 0 0 100 127 1 0 0;
#X obj 280 280 bop.noteslider;
#A saved 1.41304 0 3.51358;
#X obj 280 380 bop.notefx;
#A saved -0.146341 -0.878049 0 0 100 127 1 0 0;
#X obj 280 540 bop.glok;
#A saved 1;
#X obj 510 280 bop.noteslider;
#A saved 1.20109 0 3.70624;
#X obj 511 382 bop.notefx;
#A saved 0 -1.7561 0 0 100 127 1 0 0;
#X msg 510 246 noteslider \$1;
#X obj 510 540 bop.synth;
#A saved 0.0406159 0.798913 0.288043 0 0.233696 0 0.0869565 1 0.103826
0.0222754 0.0759337 0.502443 0 0.01 0.01;
#X obj 50 540 bop.synth;
#A saved 0.01 0.782609 0.277174 0 0.0163043 0 0.0869565 0 0.0128439
0.0927665 0.01 0.376779 0 0.0240124 0.01;
#X obj 50 110 r plant1;
#X obj 50 170 sub.plants.filter-and-scale;
#X floatatom 281 221 5 0 0 0 - - -, f 5;
#X obj 280 170 sub.plants.filter-and-scale;
#X floatatom 511 221 5 0 0 0 - - -, f 5;
#X obj 510 170 sub.plants.filter-and-scale;
#X obj 280 110 r plant2;
#X obj 510 110 r plant3;
#X floatatom 290 140 5 0 0 0 - - -, f 5;
#X obj 50 880 bop.mix;
#A saved 0 0.76614 0.811024;
#X obj 280 880 bop.mix;
#A saved 0 0.76614 0;
#X obj 510 880 bop.mix;
#A saved 0 0.76614 -0.80315;
#X floatatom 530 140 5 0 0 0 - - -, f 5;
#X floatatom 70 140 5 0 0 0 - - -, f 5;
#X obj 280 1340 dac~, f 34;
#X obj 50 80 s plant1-slider;
#X obj 50 50 hsl 128 15 0 1 0 0 empty empty empty -2 -8 0 10 #ff8080
#000000 #000000 0 1;
#X obj 280 50 hsl 128 15 0 1 0 0 empty empty empty -2 -8 0 10 #acffac
#000000 #000000 0 1;
#X obj 510 50 hsl 128 15 0 1 0 0 empty empty empty -2 -8 0 10 #8cc6ff
#000000 #000000 0 1;
#X obj 280 80 s plant2-slider;
#X obj 510 80 s plant3-slider;
#X obj 60 190 r plant1-slider;
#X obj 290 190 r plant2-slider;
#X obj 560 200 r plant3-slider;
#X obj 750 50 bop.palette;
#X connect 1 0 4 0;
#X connect 2 0 6 0;
#X connect 2 1 6 1;
#X connect 3 2 7 2;
#X connect 4 0 3 3;
#X connect 5 0 8 3;
#X connect 6 0 30 0;
#X connect 6 1 30 1;
#X connect 7 2 15 2;
#X connect 8 2 9 2;
#X connect 9 2 10 2;
#X connect 10 0 26 0;
#X connect 10 1 26 1;
#X connect 11 2 12 2;
#X connect 12 2 14 2;
#X connect 13 0 11 3;
#X connect 14 0 27 0;
#X connect 14 1 27 1;
#X connect 15 0 25 0;
#X connect 15 1 25 1;
#X connect 16 0 29 0;
#X connect 16 0 17 0;
#X connect 17 0 1 0;
#X connect 18 0 5 0;
#X connect 19 0 18 0;
#X connect 20 0 13 0;
#X connect 21 0 20 0;
#X connect 22 0 24 0;
#X connect 22 0 19 0;
#X connect 23 0 28 0;
#X connect 23 0 21 0;
#X connect 25 0 2 0;
#X connect 25 1 2 1;
#X connect 26 0 2 0;
#X connect 26 1 2 1;
#X connect 27 0 2 0;
#X connect 27 1 2 1;
#X connect 32 0 31 0;
#X connect 33 0 35 0;
#X connect 34 0 36 0;
#X connect 37 0 1 0;
#X connect 38 0 18 0;
#X connect 39 0 20 0;
#X restore 40 260 pd the-plants-bop-sketch;
#X connect 1 0 0 0;
#X connect 2 0 1 0;
#X connect 4 0 3 0;
#X connect 5 0 6 0;
#X connect 6 0 4 0;
