#N canvas 0 37 945 891 10;
#X declare -path ./bop;
#X declare -path ./pdfm;
#X obj 132 43 declare -path ./bop;
#X text 993 1940 comment;
#X msg 103 346 noteslider \$1;
#X floatatom 481 326 5 0 0 0 - - - 0;
#X floatatom 104 312 5 0 0 0 - - - 0;
#X obj 104 683 bop.casio;
#A saved 0 3.61413 -0.0752688 0.0340886 1 0.891304 0 0 0 0 1;
#X msg 271 382 filter \$1;
#X msg 484 426 wave-1 \$1;
#X obj 487 373 * 7;
#X obj 103 228 r plant1;
#X obj 560 560 bop.harp;
#A saved 0;
#X msg 528 353 noteslider \$1;
#X obj 110 1060 *~ 0.7;
#X obj 360 1050 *~ 0.7;
#X obj 480 233 r plant2;
#X obj 141 273 hsl 128 15 0 1 0 0 empty plant1-slider r\ plant1-slider -2 -8 0 10 #fcfcfc #000000 #000000 0 1;
#X obj 513 279 hsl 128 15 0 1 0 0 empty plant2-slider r\ plant2-slider -2 -8 0 10 #fcfcfc #000000 #000000 0 1;
#X obj 130 67 declare -path ./pdfm;
#X obj 283 42 inlet;
#X obj 283 72 == \$1;
#X obj 283 128 switch~;
#X obj 283 98 tgl 16 0 empty empty ENABLE 20 10 0 10 #00ff04 #000000 #000000 0 1;
#X obj 268 328 sub.bop.util.scale 0.07 1 0 1;
#X obj 107 1108 throw~ left;
#X obj 356 1106 throw~ right;
#X obj 719 374 loadbang;
#X obj 575 488 newbop/sub.bop.strum;
#X msg 720 403 chord 15 \, root 60 \, octaves 3 \, shuffle 0 \, velocity 0.7 \, duration 0.2;
#X obj 177 433 loadbang;
#X obj 42 539 newbop/sub.bop.strum;
#X msg 178 462 chord 15 \, root 48 \, octaves 3 \, shuffle 0 \, velocity 0.7 \, duration 0.2, f 14;
#X connect 2 0 29 1;
#X connect 3 0 8 0;
#X connect 3 0 11 0;
#X connect 4 0 2 0;
#X connect 4 0 22 0;
#X connect 5 0 12 0;
#X connect 6 0 5 3;
#X connect 7 0 5 3;
#X connect 8 0 7 0;
#X connect 9 0 4 0;
#X connect 10 0 13 0;
#X connect 11 0 26 1;
#X connect 12 0 23 0;
#X connect 13 0 24 0;
#X connect 14 0 3 0;
#X connect 15 0 4 0;
#X connect 16 0 3 0;
#X connect 18 0 19 0;
#X connect 19 0 21 0;
#X connect 21 0 20 0;
#X connect 22 0 6 0;
#X connect 25 0 27 0;
#X connect 26 1 10 2;
#X connect 27 0 26 1;
#X connect 28 0 30 0;
#X connect 29 1 5 2;
#X connect 30 0 29 1;
