#N canvas 0 37 1470 891 10;
#X declare -path ./bop;
#X declare -path ./pdfm;
#X obj 56 36 declare -path ./bop;
#X obj 64 367 bop.noteslider;
#A saved 1.37772 0 3.58696;
#X msg 64 339 noteslider \$1;
#X floatatom 65 250 5 0 0 0 - - - 0;
#X obj 64 199 sub.plants.filter-and-scale;
#X floatatom 84 178 5 0 0 0 - - - 0;
#X floatatom 64 312 5 0 0 0 - - - 0;
#X obj 65 280 expr if($f1 < 0.07 \, 0 \, 0.07);
#X obj 64 642 bop.casio;
#A saved 1.29348 0 -0.0677419 0.01 0.793478 0.228261 1 0.266304 0 0 0;
#X msg 284 551 filter \$1;
#X obj 63 148 r plant1;
#X obj 196 512 unpack;
#X obj 196 537 - 12;
#X obj 196 562 pack;
#X obj 119 241 hsl 128 15 0 1 0 0 empty plant1-slider r\ plant1-slider -2 -8 0 10 #fcfcfc #000000 #000000 0 1;
#X obj 56 65 declare -path ./pdfm;
#X text 578 1270 comment;
#X obj 498 459 fm-operator;
#A saved 130.813 1 1 1 0 0.204094 0 0.915254 1 0.627119 0.0840336 1 0.092437;
#X obj 213 34 inlet;
#X obj 213 64 == \$1;
#X obj 213 120 switch~;
#X obj 213 90 tgl 16 0 empty empty ENABLE 20 10 0 10 #00ff04 #000000 #000000 0 1;
#X obj 285 517 sub.bop.util.scale 0.07 1 0 0.9;
#X obj 661 460 fm-operator;
#A saved 130.813 1 1 4 0.1 0.252101 0 1 1 0.322034 0.109244 0.462185 1;
#X obj 498 882 clip~ -0.9 0.9;
#X obj 498 847 *~ 0.5;
#X msg 764 384 0;
#X msg 698 387 48 127;
#X obj 829 461 fm-operator;
#A saved 130.813 1 1 16 0.1 0 0 1 1 0.322034 0 0 0;
#X obj 498 360 snapshot~;
#X obj 559 337 bng 15 250 50 0 empty empty empty 17 7 0 10 #fcfcfc #000000 #000000;
#X obj 560 282 tgl 15 0 empty empty empty 17 7 0 10 #fcfcfc #000000 #000000 0 1;
#X msg 498 413 fm \$1;
#X obj 498 332 osc~ 0.01;
#X obj 498 385 sub.bop.util.scale -1 1 0.1 0.3;
#X obj 583 205 loadbang;
#X msg 560 256 1;
#X obj 560 310 metro 50;
#X obj 61 959 throw~ left;
#X obj 136 961 throw~ right;
#X obj 463 968 throw~ left;
#X obj 543 965 throw~ right;
#X connect 1 2 11 0;
#X connect 2 0 1 3;
#X connect 3 0 7 0;
#X connect 3 0 22 0;
#X connect 4 0 3 0;
#X connect 6 0 2 0;
#X connect 7 0 6 0;
#X connect 8 0 38 0;
#X connect 8 1 39 0;
#X connect 9 0 8 3;
#X connect 10 0 5 0;
#X connect 10 0 4 0;
#X connect 11 0 12 0;
#X connect 11 1 13 1;
#X connect 12 0 13 0;
#X connect 13 0 8 2;
#X connect 14 0 3 0;
#X connect 17 0 25 0;
#X connect 18 0 19 0;
#X connect 19 0 21 0;
#X connect 21 0 20 0;
#X connect 21 0 31 0;
#X connect 22 0 9 0;
#X connect 23 0 17 1;
#X connect 24 0 40 0;
#X connect 24 0 41 0;
#X connect 25 0 24 0;
#X connect 27 0 23 0;
#X connect 27 0 28 0;
#X connect 27 0 17 0;
#X connect 28 0 17 1;
#X connect 29 0 34 0;
#X connect 30 0 29 0;
#X connect 31 0 37 0;
#X connect 32 0 17 0;
#X connect 33 0 29 0;
#X connect 34 0 32 0;
#X connect 35 0 36 0;
#X connect 35 0 27 0;
#X connect 36 0 31 0;
#X connect 37 0 30 0;
