#N canvas 123 101 768 677 10;
#X declare -path ./bop;
#X obj 140 40 declare -path ./bop;
#X obj 66 1046 bop.reverb;
#A saved 0.866848 0.441576 1.8913 0.0902829 1 0 0;
#X obj 64 367 bop.noteslider;
#A saved 1.37772 0 3.70624;
#X msg 64 339 noteslider \$1;
#X floatatom 65 250 5 0 0 0 - - - 0;
#X obj 64 199 sub.plants.filter-and-scale;
#X floatatom 84 178 5 0 0 0 - - - 0;
#X obj 66 1252 dac~, f 34;
#X floatatom 64 312 5 0 0 0 - - - 0;
#X obj 65 280 expr if($f1 < 0.07 \, 0 \, 0.07);
#X obj 64 642 bop.casio;
#A saved 2.28261 0 0 0.01 0.793478 0.228261 1 0.266304 0 0 0;
#X msg 354 543 filter \$1;
#X obj 63 148 r plant1;
#X obj 196 512 unpack;
#X obj 196 537 - 12;
#X obj 196 562 pack;
#X obj 119 241 hsl 128 15 0 1 0 0 empty plant1-slider r\ plant1-slider -2 -8 0 10 #fcfcfc #000000 #000000 0 1;
#X obj 430 491 sub.bop.util.scale 0.07 1 0 1;
#X connect 1 0 7 0;
#X connect 1 1 7 1;
#X connect 2 2 13 0;
#X connect 3 0 2 3;
#X connect 4 0 9 0;
#X connect 4 0 17 0;
#X connect 5 0 4 0;
#X connect 8 0 3 0;
#X connect 9 0 8 0;
#X connect 10 0 1 0;
#X connect 10 1 1 1;
#X connect 11 0 10 3;
#X connect 12 0 6 0;
#X connect 12 0 5 0;
#X connect 13 0 14 0;
#X connect 13 1 15 1;
#X connect 14 0 15 0;
#X connect 15 0 10 2;
#X connect 16 0 4 0;
#X connect 17 0 11 0;
