#N canvas 109 37 768 677 10;
#X declare -path ./bop;
#X obj 140 40 declare -path ./bop;
#X obj 66 1046 bop.reverb;
#A saved 0.866848 0.441576 1.8913 0.0902829 1 0 0;
#X obj 67 1234 bop.mix;
#A saved 0 1.06968 0;
#X obj 64 367 bop.noteslider;
#A saved 1.37772 0 3.70624;
#X obj 64 469 bop.notefx;
#A saved 0 -1.7561 0 0 100 127 1 0 0;
#X msg 64 339 noteslider \$1;
#X floatatom 65 250 5 0 0 0 - - -, f 5;
#X obj 64 199 sub.plants.filter-and-scale;
#X obj 65 930 bop.mix;
#A saved 0 0.76614 0;
#X floatatom 84 178 5 0 0 0 - - -, f 5;
#X obj 72 1406 dac~, f 34;
#X obj 1012 97 bop.palette;
#X floatatom 64 312 5 0 0 0 - - -, f 5;
#X obj 65 280 expr if($f1 < 0.07 \, 0 \, 0.07);
#X obj 430 491 scale 0.07 1 0 1;
#X obj 64 642 bop.casio;
#A saved 2.28261 0 0.528084 0.01 0.793478 0.228261 1 0.266304 0 0 0
;
#X msg 354 543 filter \$1;
#X obj 61 115 s plant1-slider;
#X obj 61 85 hsl 128 15 0 1 0 0 empty empty empty -2 -8 0 10 #ff8080
#000000 #000000 0 1;
#X obj 63 148 r plant1;
#X obj 114 229 r plant1-slider;
#X connect 1 0 2 0;
#X connect 1 1 2 1;
#X connect 2 0 10 0;
#X connect 2 1 10 1;
#X connect 3 2 4 2;
#X connect 4 2 15 2;
#X connect 5 0 3 3;
#X connect 6 0 13 0;
#X connect 6 0 14 0;
#X connect 7 0 6 0;
#X connect 8 0 1 0;
#X connect 8 1 1 1;
#X connect 12 0 5 0;
#X connect 13 0 12 0;
#X connect 14 0 16 0;
#X connect 15 0 8 0;
#X connect 15 1 8 1;
#X connect 16 0 15 3;
#X connect 18 0 17 0;
#X connect 19 0 9 0;
#X connect 19 0 7 0;
#X connect 20 0 6 0;
