#N canvas 0 37 1470 891 10;
#X declare -path ./bop;
#X declare -path ./pdfm;
#X obj 117 83 declare -path ./bop;
#X text 993 1940 comment;
#X obj 109 1228 bop.reverb;
#A saved 0.866848 0.441576 1.8913 0.0902829 1 0 0;
#X obj 103 374 bop.noteslider;
#A saved 1.16576 0 1;
#X msg 103 346 noteslider \$1;
#X floatatom 481 326 5 0 0 0 - - - 0;
#X obj 480 230 sub.plants.filter-and-scale;
#X floatatom 104 312 5 0 0 0 - - - 0;
#X obj 103 216 sub.plants.filter-and-scale;
#X floatatom 490 200 5 0 0 0 - - - 0;
#X floatatom 123 195 5 0 0 0 - - - 0;
#X obj 110 1470 dac~, f 34;
#X obj 342 355 scale 0.07 1 0 1;
#X obj 104 683 bop.casio;
#A saved 0 0 0 0.0141963 0.961957 0.184783 1 0.0190217 0 0 0;
#X msg 339 382 filter \$1;
#X msg 484 426 wave-1 \$1;
#X obj 487 373 * 7;
#X obj 103 165 r plant1;
#X obj 560 560 bop.harp;
#A saved 1;
#X obj 575 383 bop.noteslider;
#A saved 1.16576 0 1;
#X msg 528 353 noteslider \$1;
#X obj 110 1060 *~ 0.7;
#X obj 360 1050 *~ 0.7;
#X obj 240 570 unpack;
#X obj 240 595 - 12;
#X obj 240 620 pack;
#X obj 480 170 r plant2;
#X obj 141 273 hsl 128 15 0 1 0 0 empty plant1-slider r\ plant1-slider -2 -8 0 10 #fcfcfc #000000 #000000 0 1;
#X obj 513 279 hsl 128 15 0 1 0 0 empty plant2-slider r\ plant2-slider -2 -8 0 10 #fcfcfc #000000 #000000 0 1;
#X obj 115 107 declare -path ./pdfm;
#X obj 901 156 fm-operator;
#A saved 0 1 1 1 0 0 0.01 0.5 0.8 0.2 0 0 1;
#X connect 2 0 11 0;
#X connect 2 1 11 1;
#X connect 3 2 23 0;
#X connect 4 0 3 3;
#X connect 5 0 16 0;
#X connect 5 0 20 0;
#X connect 6 0 5 0;
#X connect 7 0 12 0;
#X connect 7 0 4 0;
#X connect 8 0 7 0;
#X connect 12 0 14 0;
#X connect 13 0 21 0;
#X connect 14 0 13 3;
#X connect 15 0 13 3;
#X connect 16 0 15 0;
#X connect 17 0 10 0;
#X connect 17 0 8 0;
#X connect 18 0 22 0;
#X connect 19 2 18 2;
#X connect 20 0 19 3;
#X connect 21 0 2 0;
#X connect 22 0 2 1;
#X connect 23 0 24 0;
#X connect 23 1 25 1;
#X connect 24 0 25 0;
#X connect 25 0 13 2;
#X connect 26 0 9 0;
#X connect 26 0 6 0;
#X connect 27 0 7 0;
#X connect 28 0 5 0;
