#N canvas 517 142 953 678 12;
#X declare -path ./bop;
#X declare -path ./pdfm;
#X obj 32 8 declare -path ./bop;
#X obj 30 32 declare -path ./pdfm;
#X obj 341 236 fm-operator;
#A saved 261.626 1 1 1 0 0.586524 0.152542 0.5 0.8 0.2 0.10084 0.638655 0.117647;
#X obj 364 115 snapshot~;
#X obj 425 92 bng 15 250 50 0 empty empty empty 17 7 0 10 #fcfcfc #000000 #000000;
#X obj 426 37 tgl 15 0 empty empty empty 17 7 0 10 #fcfcfc #000000 #000000 0 1;
#X msg 364 168 fm \$1;
#X obj 364 87 osc~ 0.01;
#X obj 506 238 fm-operator;
#A saved 261.626 1 1 1 0 0 0.01 0.59322 0.8 0.2 0.0840336 1 0.0420168;
#X obj 342 663 clip~ -0.9 0.9;
#X obj 342 628 *~ 0.5;
#X obj 671 240 fm-operator;
#A saved 261.626 1 1 2 0 0 0.355932 0.59322 0.8 0.2 0.134454 1 0.0336134;
#X obj 828 240 fm-operator;
#A saved 261.626 1 1 4 1 0 0 0.59322 0.8 0.2 0.0840336 1 0.0168067;
#X obj 364 140 sub.bop.util.scale -1 1 0.1 0.6;
#X obj 309 12 loadbang;
#X msg 286 63 1;
#X obj 426 65 metro 50;
#X msg 482 168 60 127;
#X obj 339 722 throw~ left;
#X obj 414 724 throw~ right;
#X connect 2 0 10 0;
#X connect 3 0 13 0;
#X connect 4 0 3 0;
#X connect 5 0 16 0;
#X connect 6 0 2 0;
#X connect 7 0 3 0;
#X connect 8 0 2 1;
#X connect 9 0 18 0;
#X connect 9 0 19 0;
#X connect 10 0 9 0;
#X connect 11 0 2 1;
#X connect 12 0 2 1;
#X connect 13 0 6 0;
#X connect 14 0 15 0;
#X connect 14 0 17 0;
#X connect 15 0 5 0;
#X connect 16 0 4 0;
#X connect 17 0 2 0;
#X connect 17 0 8 0;
#X connect 17 0 11 0;
#X connect 17 0 12 0;
