#N canvas 0 37 1470 891 10;
#X declare -path ./bop;
#X declare -path ./pdfm;
#X obj 132 43 declare -path ./bop;
#X text 993 1940 comment;
#X obj 109 1228 bop.reverb;
#X obj 103 374 bop.noteslider;
#X msg 103 346 noteslider \$1;
#X floatatom 481 326 5 0 0 0 - - - 0;
#X obj 480 230 sub.plants.filter-and-scale;
#X floatatom 104 312 5 0 0 0 - - - 0;
#X obj 103 216 sub.plants.filter-and-scale;
#X floatatom 490 200 5 0 0 0 - - - 0;
#X floatatom 123 195 5 0 0 0 - - - 0;
#X obj 110 1470 dac~, f 34;
#X obj 104 683 bop.casio;
#X msg 339 382 filter \$1;
#X msg 484 426 wave-1 \$1;
#X obj 487 373 * 7;
#X obj 103 165 r plant1;
#X obj 560 560 bop.harp;
#X obj 575 383 bop.noteslider;
#X msg 528 353 noteslider \$1;
#X obj 110 1060 *~ 0.7;
#X obj 360 1050 *~ 0.7;
#X obj 240 570 unpack;
#X obj 240 595 - 12;
#X obj 240 620 pack;
#X obj 480 170 r plant2;
#X obj 141 273 hsl 128 15 0 1 0 0 empty plant1-slider r\ plant1-slider -2 -8 0 10 #fcfcfc #000000 #000000 0 1;
#X obj 513 279 hsl 128 15 0 1 0 0 empty plant2-slider r\ plant2-slider -2 -8 0 10 #fcfcfc #000000 #000000 0 1;
#X obj 130 67 declare -path ./pdfm;
#X obj 283 42 inlet;
#X obj 283 72 == \$1;
#X obj 283 128 switch~;
#X obj 283 98 tgl 16 0 empty empty ENABLE 20 10 0 10 #00ff04 #000000 #000000 0 1;
#X obj 304 305 sub.bop.util.scale 0.07 1 0 1;
#X obj 874 328 fm-operator;
#X obj 1037 329 fm-operator;
#X obj 874 751 clip~ -0.9 0.9;
#X obj 874 716 *~ 0.5;
#X msg 1140 253 0;
#X obj 1205 330 fm-operator;
#X obj 874 229 snapshot~;
#X obj 935 206 bng 15 250 50 0 empty empty empty 17 7 0 10 #fcfcfc #000000 #000000;
#X obj 936 151 tgl 15 0 empty empty empty 17 7 0 10 #fcfcfc #000000 #000000 0 1;
#X obj 936 179 metro 10;
#X msg 874 282 fm \$1;
#X obj 874 201 osc~ 0.01;
#X obj 1366 331 fm-operator;
#X msg 1074 256 55 127;
#X obj 874 254 sub.bop.util.scale -1 1 0.1 0.3;
#X obj 993 66 loadbang;
#X msg 939 111 1;
#X connect 2 0 11 0;
#X connect 2 1 11 1;
#X connect 3 2 22 0;
#X connect 4 0 3 3;
#X connect 5 0 15 0;
#X connect 5 0 19 0;
#X connect 6 0 5 0;
#X connect 7 0 4 0;
#X connect 7 0 33 0;
#X connect 8 0 7 0;
#X connect 12 0 20 0;
#X connect 13 0 12 3;
#X connect 14 0 12 3;
#X connect 15 0 14 0;
#X connect 16 0 10 0;
#X connect 16 0 8 0;
#X connect 17 0 21 0;
#X connect 18 2 17 2;
#X connect 19 0 18 3;
#X connect 20 0 2 0;
#X connect 21 0 2 1;
#X connect 22 0 23 0;
#X connect 22 1 24 1;
#X connect 23 0 24 0;
#X connect 24 0 12 2;
#X connect 25 0 9 0;
#X connect 25 0 6 0;
#X connect 26 0 7 0;
#X connect 27 0 5 0;
#X connect 29 0 30 0;
#X connect 30 0 32 0;
#X connect 32 0 31 0;
#X connect 33 0 13 0;
#X connect 34 0 37 0;
#X connect 35 0 34 1;
#X connect 36 0 2 0;
#X connect 36 0 2 1;
#X connect 37 0 36 0;
#X connect 38 0 34 0;
#X connect 39 0 35 1;
#X connect 40 0 48 0;
#X connect 41 0 40 0;
#X connect 42 0 43 0;
#X connect 43 0 41 0;
#X connect 44 0 34 0;
#X connect 45 0 40 0;
#X connect 46 0 39 1;
#X connect 47 0 35 0;
#X connect 47 0 39 0;
#X connect 47 0 34 0;
#X connect 47 0 46 0;
#X connect 48 0 44 0;
#X connect 49 0 50 0;
#X connect 49 0 47 0;
#X connect 50 0 42 0;
