#N canvas 0 32 839 1057 12;
#X declare -path ./bop;
#X declare -path ./pdfm;
#X declare -path ./newbop/bop.p;
#X obj 32 8 declare -path ./bop;
#X obj 30 32 declare -path ./pdfm;
#X obj 617 301 fm-operator;
#A saved 261.626 1 1 1 0 0.1 0.152542 0.5 0.8 0.2 0.10084 0.638655 0.117647;
#X msg 640 233 fm \$1;
#X obj 782 303 fm-operator;
#A saved 261.626 1 1 1 0 0 0.01 0.59322 0.8 0.2 0.0840336 1 0.0420168;
#X obj 618 728 clip~ -0.9 0.9;
#X obj 618 693 *~ 0.5;
#X obj 947 305 fm-operator;
#A saved 261.626 1 1 2 0 0 0.355932 0.59322 0.8 0.2 0.134454 1 0.0336134;
#X obj 1104 305 fm-operator;
#A saved 261.626 1 1 4 1 0 0 0.59322 0.8 0.2 0.0840336 1 0.0168067;
#X obj 585 77 loadbang;
#X msg 758 233 60 127;
#X obj 615 787 throw~ left;
#X obj 690 789 throw~ right;
#X obj 240 29 inlet;
#X obj 240 59 == \$1;
#X obj 240 115 switch~;
#X obj 240 85 tgl 16 0 empty empty ENABLE 20 10 0 10 #00ff04 #000000 #000000 0 1;
#X obj 26 68 declare -path ./newbop/bop.p;
#X obj 26 103 bop.p.blineseq;
#X obj 26 137 bop.p.bline~;
#X text 99 308 noteslider 0 - 1 \; chord 0 - 15 \; shuffle 0 - 1 \; root 0 - 127 \; octaves 0 - 6 \; velocity 0 - 1 \; duration 0 - 1 \;;
#X obj 640 159 bop.p.blineseq;
#X obj 640 193 bop.p.bline~;
#X msg 640 132 loop 0.1 20000 0.3 20000;
#X msg 415 648 noteslider \$1;
#X obj 335 528 bop.p.blineseq;
#X obj 335 562 bop.p.bline~;
#X obj 278 704 newbop/sub.bop.strum;
#X obj 415 749 stripnote;
#X obj 335 501 r drone-control;
#X obj 415 787 s \$0-fm;
#X obj 494 247 r \$0-fm;
#X msg 222 438 chord 15 \, root 60 \, octaves 1 \, shuffle 0 \, velocity 0.7 \, duration 1;
#X connect 2 0 6 0;
#X connect 3 0 2 0;
#X connect 4 0 2 1;
#X connect 5 0 11 0;
#X connect 5 0 12 0;
#X connect 6 0 5 0;
#X connect 7 0 2 1;
#X connect 8 0 2 1;
#X connect 9 0 10 0;
#X connect 9 0 23 0;
#X connect 9 0 32 0;
#X connect 10 0 2 0;
#X connect 10 0 4 0;
#X connect 10 0 7 0;
#X connect 10 0 8 0;
#X connect 13 0 14 0;
#X connect 14 0 16 0;
#X connect 16 0 15 0;
#X connect 18 0 19 0;
#X connect 21 0 22 0;
#X connect 22 1 3 0;
#X connect 23 0 21 0;
#X connect 24 0 27 1;
#X connect 25 0 26 0;
#X connect 26 1 24 0;
#X connect 27 1 28 0;
#X connect 28 0 30 0;
#X connect 29 0 25 0;
#X connect 31 0 2 0;
#X connect 32 0 27 1;
