#N canvas 392 94 1259 778 10;
#X declare -path ./bop;
#X declare -path ./pdfm;
#X obj 40 25 declare -path ./bop;
#X text 1395 1930 comment;
#X floatatom 46 311 5 0 0 0 - - - 0;
#X obj 45 1059 bop.reverb;
#A saved 0.866848 0.441576 1.8913 0.0507698 1 0 0;
#X obj 45 370 bop.noteslider;
#A saved 1.80163 0 4.09156;
#X msg 46 332 noteslider \$1;
#X msg 275 340 noteslider \$1;
#X obj 275 370 bop.noteslider;
#A saved 1.41304 0 3.77046;
#X obj 275 631 bop.glok;
#A saved 1;
#X obj 45 630 bop.synth;
#A saved 0.01 0.782609 0.277174 0.0108696 0.0163043 0 0.0869565 0 0.0128439 0.0927665 0.01 0.376779 0 0.0240124 0.01;
#X obj 45 160 r plant1;
#X obj 45 220 sub.plants.filter-and-scale;
#X floatatom 276 311 5 0 0 0 - - - 0;
#X obj 275 220 sub.plants.filter-and-scale;
#X obj 275 160 r plant2;
#X floatatom 285 190 5 0 0 0 - - - 0;
#X floatatom 65 190 5 0 0 0 - - - 0;
#X obj 45 1349 dac~, f 34;
#X obj 278 988 *~ 0.7;
#X obj 46 993 *~ 0.7;
#X obj 361 522 unpack;
#X obj 361 547 + 24;
#X obj 361 572 pack;
#X obj 96 524 unpack;
#X obj 96 574 pack;
#X obj 96 549 + 12;
#X obj 63 274 hsl 128 15 0 1 0 0 empty plant1-slider r\ plant1-slider -2 -8 0 10 #fcfcfc #000000 #000000 0 1;
#X obj 288 278 hsl 128 15 0 1 0 0 empty plant2-slider r\ plant2-slider -2 -8 0 10 #fcfcfc #000000 #000000 0 1;
#X obj 47 53 declare -path ./pdfm;
#X obj 181 24 inlet;
#X obj 181 54 == \$1;
#X obj 181 110 switch~;
#X obj 181 80 tgl 16 0 empty empty ENABLE 20 10 0 10 #00ff04 #000000 #000000 0 1;
#X obj 691 251 fm-operator;
#A saved 293.665 1 1 1 0 0.577516 0.152542 0.5 0.8 0.2 0 0 0.092437;
#X obj 714 130 snapshot~;
#X obj 775 107 bng 15 250 50 0 empty empty empty 17 7 0 10 #fcfcfc #000000 #000000;
#X obj 776 52 tgl 15 0 empty empty empty 17 7 0 10 #fcfcfc #000000 #000000 0 1;
#X obj 776 80 metro 10;
#X msg 714 183 fm \$1;
#X obj 714 102 osc~ 0.01;
#X obj 856 253 fm-operator;
#A saved 293.665 1 1 1 0 1 0.01 0.59322 0.8 0.2 0 0 0.00840336;
#X obj 692 678 clip~ -0.9 0.9;
#X obj 692 643 *~ 0.5;
#X obj 1021 255 fm-operator;
#A saved 293.665 1 1 2 0 1 0.355932 0.59322 0.8 0.2 0 0 0.00840336;
#X obj 1178 255 fm-operator;
#A saved 293.665 1 1 3 0 1 0 0.59322 0.8 0.2 0 0 0;
#X obj 714 155 sub.bop.util.scale -1 1 0.1 0.6;
#X msg 832 183 62 127;
#X connect 2 0 5 0;
#X connect 3 0 17 0;
#X connect 3 1 17 1;
#X connect 4 2 23 0;
#X connect 5 0 4 3;
#X connect 6 0 7 3;
#X connect 7 2 20 0;
#X connect 8 0 18 0;
#X connect 9 0 19 0;
#X connect 10 0 16 0;
#X connect 10 0 11 0;
#X connect 11 0 2 0;
#X connect 12 0 6 0;
#X connect 13 0 12 0;
#X connect 14 0 15 0;
#X connect 14 0 13 0;
#X connect 18 0 3 1;
#X connect 19 0 3 0;
#X connect 20 0 21 0;
#X connect 20 1 22 1;
#X connect 21 0 22 0;
#X connect 22 0 8 2;
#X connect 23 0 25 0;
#X connect 23 1 24 1;
#X connect 24 0 9 2;
#X connect 25 0 24 0;
#X connect 26 0 2 0;
#X connect 27 0 12 0;
#X connect 29 0 30 0;
#X connect 30 0 32 0;
#X connect 32 0 31 0;
#X connect 33 0 42 0;
#X connect 34 0 45 0;
#X connect 35 0 34 0;
#X connect 36 0 37 0;
#X connect 37 0 35 0;
#X connect 38 0 33 0;
#X connect 39 0 34 0;
#X connect 40 0 33 1;
#X connect 41 0 3 0;
#X connect 41 0 3 1;
#X connect 42 0 41 0;
#X connect 43 0 33 1;
#X connect 44 0 33 1;
#X connect 45 0 38 0;
#X connect 46 0 33 0;
#X connect 46 0 40 0;
#X connect 46 0 43 0;
#X connect 46 0 44 0;
