#N canvas 208 245 947 614 12;
#X declare -path ./bop;
#X declare -path ./pdfm;
#X obj 40 25 declare -path ./bop;
#X obj 47 53 declare -path ./pdfm;
#X obj 444 278 fm-operator;
#A saved 293.665 1 1 1 0 0.590078 0.152542 0.5 0.8 0.2 0 0 0.092437;
#X obj 467 157 snapshot~;
#X obj 249 170 bng 15 250 50 0 empty empty empty 17 7 0 10 #fcfcfc #000000 #000000;
#X obj 250 115 tgl 15 0 empty empty empty 17 7 0 10 #fcfcfc #000000 #000000 0 1;
#X msg 467 210 fm \$1;
#X obj 467 129 osc~ 0.01;
#X obj 609 280 fm-operator;
#A saved 293.665 1 1 1 0 1 0.01 0.59322 0.8 0.2 0.159664 1 0.0168067;
#X obj 443 857 clip~ -0.9 0.9;
#X obj 443 822 *~ 0.5;
#X obj 774 282 fm-operator;
#A saved 293.665 1 1 2 0 1 0.355932 0.59322 0.8 0.2 0 1 0.0168067;
#X obj 931 282 fm-operator;
#A saved 293.665 1 1 3 0 1 0 0.59322 0.8 0.2 0 0 0.00840336;
#X obj 467 182 sub.bop.util.scale -1 1 0.1 0.6;
#X msg 585 210 62 127;
#X obj 209 541 *~;
#X obj 209 479 noise~;
#X obj 208 614 lop~ 100;
#X obj 252 444 snapshot~;
#X obj 252 469 sub.bop.util.scale -1 1 0.1 1;
#X obj 252 416 osc~ 0.05;
#X obj 252 550 * 5000;
#X obj 208 577 *~ 0.1;
#X msg 224 514 0.1;
#X obj 400 47 loadbang;
#X msg 377 98 1;
#X obj 250 143 metro 50;
#X obj 445 726 bp~ 70 1;
#X obj 373 949 throw~ left;
#X obj 448 951 throw~ right;
#X connect 2 0 27 0;
#X connect 3 0 13 0;
#X connect 4 0 3 0;
#X connect 4 0 18 0;
#X connect 5 0 26 0;
#X connect 6 0 2 0;
#X connect 7 0 3 0;
#X connect 8 0 2 1;
#X connect 9 0 28 0;
#X connect 9 0 29 0;
#X connect 10 0 9 0;
#X connect 11 0 2 1;
#X connect 12 0 2 1;
#X connect 13 0 6 0;
#X connect 14 0 2 0;
#X connect 14 0 8 0;
#X connect 14 0 11 0;
#X connect 14 0 12 0;
#X connect 15 0 22 0;
#X connect 16 0 15 0;
#X connect 17 0 10 0;
#X connect 18 0 19 0;
#X connect 19 0 21 0;
#X connect 20 0 18 0;
#X connect 21 0 17 1;
#X connect 22 0 17 0;
#X connect 23 0 15 1;
#X connect 24 0 25 0;
#X connect 24 0 14 0;
#X connect 24 0 23 0;
#X connect 25 0 5 0;
#X connect 26 0 4 0;
#X connect 27 0 10 0;
