#N canvas 5 42 439 696 12;
#X obj 99 95 r plant1;
#X obj 180 94 r plant2;
#X obj 135 192 +;
#X obj 134 145 t b f;
#X obj 134 293 sel 1 0;
#X msg 157 328 stop;
#X obj 133 261 change;
#X obj 129 420 bng 19 250 50 0 empty empty empty 0 -10 0 12 #fcfcfc #000000 #000000;
#X obj 133 237 > 0.2;
#X obj 129 467 text size patterns;
#X obj 129 526 random;
#X obj 129 556 text get patterns;
#X obj 129 496 t b f;
#X obj 129 601 s drone-control;
#X obj 134 377 delay 2000;
#X obj 236 228 text define patterns;
#X msg 236 191 read plants.drone-commands.txt;
#X obj 236 168 loadbang;
#X connect 0 0 2 0;
#X connect 1 0 3 0;
#X connect 2 0 8 0;
#X connect 3 0 2 0;
#X connect 3 1 2 1;
#X connect 4 0 14 0;
#X connect 4 1 5 0;
#X connect 5 0 14 0;
#X connect 6 0 4 0;
#X connect 7 0 9 0;
#X connect 8 0 6 0;
#X connect 9 0 12 0;
#X connect 10 0 11 0;
#X connect 11 0 13 0;
#X connect 12 0 10 0;
#X connect 12 1 10 1;
#X connect 14 0 7 0;
#X connect 16 0 15 0;
#X connect 17 0 16 0;
