#N canvas 392 94 768 778 10;
#X declare -path ./bop;
#X declare -path ./pdfm;
#X obj 140 40 declare -path ./bop;
#X text 1386 1895 comment;
#X floatatom 37 276 5 0 0 0 - - - 0;
#X obj 36 1024 bop.reverb;
#A saved 0.866848 0.441576 1.8913 0.0507698 1 0 0;
#X obj 36 335 bop.noteslider;
#A saved 1.80163 0 4.09156;
#X msg 37 297 noteslider \$1;
#X msg 266 305 noteslider \$1;
#X obj 266 335 bop.noteslider;
#A saved 1.41304 0 3.77046;
#X obj 266 596 bop.glok;
#A saved 1;
#X obj 36 595 bop.synth;
#A saved 0.01 0.782609 0.277174 0.0108696 0.0163043 0 0.0869565 0 0.0128439 0.0927665 0.01 0.376779 0 0.0240124 0.01;
#X obj 36 125 r plant1;
#X obj 36 185 sub.plants.filter-and-scale;
#X floatatom 267 276 5 0 0 0 - - - 0;
#X obj 266 185 sub.plants.filter-and-scale;
#X obj 266 125 r plant2;
#X floatatom 276 155 5 0 0 0 - - - 0;
#X floatatom 56 155 5 0 0 0 - - - 0;
#X obj 36 1314 dac~, f 34;
#X obj 269 953 *~ 0.7;
#X obj 37 958 *~ 0.7;
#X obj 352 487 unpack;
#X obj 352 512 + 24;
#X obj 352 537 pack;
#X obj 87 489 unpack;
#X obj 87 539 pack;
#X obj 87 514 + 12;
#X obj 54 239 hsl 128 15 0 1 0 0 empty plant1-slider r\ plant1-slider -2 -8 0 10 #fcfcfc #000000 #000000 0 1;
#X obj 279 243 hsl 128 15 0 1 0 0 empty plant2-slider r\ plant2-slider -2 -8 0 10 #fcfcfc #000000 #000000 0 1;
#X obj 147 68 declare -path ./pdfm;
#X obj 510 142 fm-operator;
#A saved 0 1 1 1 0 0 0.01 0.5 0.8 0.2 0 0 1;
#X connect 2 0 5 0;
#X connect 3 0 17 0;
#X connect 3 1 17 1;
#X connect 4 2 23 0;
#X connect 5 0 4 3;
#X connect 6 0 7 3;
#X connect 7 2 20 0;
#X connect 8 0 18 0;
#X connect 9 0 19 0;
#X connect 10 0 16 0;
#X connect 10 0 11 0;
#X connect 11 0 2 0;
#X connect 12 0 6 0;
#X connect 13 0 12 0;
#X connect 14 0 15 0;
#X connect 14 0 13 0;
#X connect 18 0 3 1;
#X connect 19 0 3 0;
#X connect 20 0 21 0;
#X connect 20 1 22 1;
#X connect 21 0 22 0;
#X connect 22 0 8 2;
#X connect 23 0 25 0;
#X connect 23 1 24 1;
#X connect 24 0 9 2;
#X connect 25 0 24 0;
#X connect 26 0 2 0;
#X connect 27 0 12 0;
