#N canvas 0 37 735 891 10;
#X declare -path ./bop;
#X obj 40 25 declare -path ./bop;
#X text 1395 1930 comment;
#X floatatom 46 311 5 0 0 0 - - - 0;
#X obj 45 370 bop.noteslider;
#A saved 1.80163 0 4.09156;
#X msg 46 332 noteslider \$1;
#X msg 275 340 noteslider \$1;
#X obj 275 370 bop.noteslider;
#A saved 1.41304 0 3.77046;
#X obj 275 631 bop.glok;
#A saved 1;
#X obj 45 630 bop.synth;
#A saved 0.01 0.782609 0.277174 0.0108696 0.0163043 0 0.0869565 0 0.0128439 0.0927665 0.01 0.376779 0 0.0240124 0.01;
#X obj 45 160 r plant1;
#X obj 45 220 sub.plants.filter-and-scale;
#X floatatom 276 311 5 0 0 0 - - - 0;
#X obj 275 220 sub.plants.filter-and-scale;
#X obj 275 160 r plant2;
#X floatatom 285 190 5 0 0 0 - - - 0;
#X floatatom 65 190 5 0 0 0 - - - 0;
#X obj 278 988 *~ 0.7;
#X obj 46 993 *~ 0.7;
#X obj 361 522 unpack;
#X obj 361 547 + 24;
#X obj 361 572 pack;
#X obj 96 524 unpack;
#X obj 96 574 pack;
#X obj 96 549 + 12;
#X obj 63 274 hsl 128 15 0 1 0 0 empty plant1-slider r\ plant1-slider -2 -8 0 10 #fcfcfc #000000 #000000 0 1;
#X obj 288 278 hsl 128 15 0 1 0 0 empty plant2-slider r\ plant2-slider -2 -8 0 10 #fcfcfc #000000 #000000 0 1;
#X obj 181 24 inlet;
#X obj 181 54 == \$1;
#X obj 181 110 switch~;
#X obj 181 80 tgl 16 0 empty empty ENABLE 20 10 0 10 #00ff04 #000000 #000000 0 1;
#X obj 45 1051 throw~ left;
#X obj 270 1037 throw~ right;
#X connect 2 0 4 0;
#X connect 3 2 21 0;
#X connect 4 0 3 3;
#X connect 5 0 6 3;
#X connect 6 2 18 0;
#X connect 7 0 16 0;
#X connect 8 0 17 0;
#X connect 9 0 15 0;
#X connect 9 0 10 0;
#X connect 10 0 2 0;
#X connect 11 0 5 0;
#X connect 12 0 11 0;
#X connect 13 0 14 0;
#X connect 13 0 12 0;
#X connect 16 0 31 0;
#X connect 17 0 30 0;
#X connect 18 0 19 0;
#X connect 18 1 20 1;
#X connect 19 0 20 0;
#X connect 20 0 7 2;
#X connect 21 0 23 0;
#X connect 21 1 22 1;
#X connect 22 0 8 2;
#X connect 23 0 22 0;
#X connect 24 0 2 0;
#X connect 25 0 11 0;
#X connect 26 0 27 0;
#X connect 27 0 29 0;
#X connect 29 0 28 0;
