#N canvas 257 124 1418 965 12;
#X declare -path ./bop;
#X declare -path ./pdfm;
#X obj 56 36 declare -path ./bop;
#X obj 56 65 declare -path ./pdfm;
#X obj 64 1062 dac~, f 12;
#X obj 64 916 bop/bop.reverb;
#A saved 0.669565 0.402174 2 0.782609 1 0 0;
#X obj 63 872 catch~ left;
#X obj 160 872 catch~ right;
#X floatatom 311 281 5 0 0 0 - - - 0;
#X obj 310 340 bop.noteslider;
#A saved 1.80163 0 3.64202;
#X msg 311 302 noteslider \$1;
#X obj 357 246 hsl 128 15 0 1 0 0 empty plant1-slider r\ plant1-slider -2 -8 0 10 #fcfcfc #000000 #000000 0 1;
#X obj 65 280 expr if($f1 < 0.07 \, 0 \, 0.07);
#X obj 743 272 fm-operator;
#A saved 195.998 1 1 1 0 0.299186 0.01 0.5 0.8 0.2 0 0 0.294118;
#X obj 906 273 fm-operator;
#A saved 195.998 1 1 1 0 0 0.01 0.5 0.8 0.2 0 0 1;
#X obj 741 830 clip~ -0.9 0.9;
#X msg 1009 197 0;
#X obj 1074 274 fm-operator;
#A saved 195.998 1 1 1 0 0 0.01 0.5 0.8 0.2 0 0 1;
#X obj 743 173 snapshot~;
#X obj 804 150 bng 15 250 50 0 empty empty empty 17 7 0 10 #fcfcfc #000000 #000000;
#X obj 805 95 tgl 15 0 empty empty empty 17 7 0 10 #fcfcfc #000000 #000000 0 1;
#X msg 743 226 fm \$1;
#X obj 743 145 osc~ 0.01;
#X obj 1235 275 fm-operator;
#A saved 195.998 1 1 1 0 0 0.01 0.5 0.8 0.2 0 0 1;
#X msg 943 200 55 127;
#X obj 743 198 sub.bop.util.scale -1 1 0.1 0.3;
#X obj 862 10 loadbang;
#X msg 808 55 1;
#X obj 805 123 metro 50;
#X obj 743 730 *~ 0.2;
#X obj 509 344 *~;
#X obj 509 282 noise~;
#X obj 508 412 lop~ 100;
#X obj 552 247 snapshot~;
#X obj 552 272 sub.bop.util.scale -1 1 0.1 1;
#X obj 552 353 * 5000;
#X obj 508 380 *~ 0.1;
#X msg 524 317 0.1;
#X obj 577 215 osc~ 0.02;
#X obj 743 777 bp~ 600 1;
#X floatatom 789 698 5 0 0 0 - - - 0;
#X obj 743 683 *~ 0.2;
#X obj 671 917 throw~ left;
#X obj 746 919 throw~ right;
#X obj 213 34 inlet;
#X obj 213 64 == \$1;
#X obj 213 120 switch~;
#X obj 213 90 tgl 16 0 empty empty ENABLE 20 10 0 10 #00ff04 #000000 #000000 0 1;
#X connect 3 0 2 0;
#X connect 3 1 2 1;
#X connect 4 0 3 0;
#X connect 5 0 3 1;
#X connect 6 0 8 0;
#X connect 8 0 7 3;
#X connect 9 0 6 0;
#X connect 11 0 39 0;
#X connect 12 0 11 1;
#X connect 13 0 40 0;
#X connect 13 0 41 0;
#X connect 14 0 11 0;
#X connect 15 0 12 1;
#X connect 16 0 23 0;
#X connect 17 0 16 0;
#X connect 17 0 31 0;
#X connect 18 0 26 0;
#X connect 19 0 11 0;
#X connect 20 0 16 0;
#X connect 21 0 15 1;
#X connect 22 0 12 0;
#X connect 22 0 15 0;
#X connect 22 0 11 0;
#X connect 22 0 21 0;
#X connect 23 0 19 0;
#X connect 24 0 25 0;
#X connect 24 0 22 0;
#X connect 24 0 35 0;
#X connect 25 0 18 0;
#X connect 26 0 17 0;
#X connect 27 0 37 0;
#X connect 28 0 34 0;
#X connect 29 0 28 0;
#X connect 30 0 27 0;
#X connect 31 0 32 0;
#X connect 32 0 33 0;
#X connect 33 0 30 1;
#X connect 33 0 38 0;
#X connect 34 0 30 0;
#X connect 35 0 28 1;
#X connect 36 0 31 0;
#X connect 37 0 13 0;
#X connect 38 0 37 1;
#X connect 39 0 27 0;
#X connect 42 0 43 0;
#X connect 43 0 45 0;
#X connect 45 0 44 0;
