#N canvas 0 37 1470 891 10;
#X declare -path ./bop;
#X obj 117 83 declare -path ./bop;
#X text 993 1940 comment;
#X obj 99 1358 bop.reverb;
#A saved 0.866848 0.441576 1.8913 0.0902829 1 0 0;
#X obj 97 1603 bop.mix;
#A saved 0 1.06968 0;
#X obj 103 374 bop.noteslider;
#A saved 1.16576 0 1;
#X obj 104 476 bop.notefx;
#A saved 0 -1.7561 0 0 100 127 1 0 0;
#X msg 103 346 noteslider \$1;
#X floatatom 481 326 5 0 0 0 - - -, f 5;
#X obj 480 275 sub.plants.filter-and-scale;
#X floatatom 104 312 5 0 0 0 - - -, f 5;
#X obj 103 261 sub.plants.filter-and-scale;
#X floatatom 490 245 5 0 0 0 - - -, f 5;
#X obj 100 1180 bop.mix;
#A saved 0 0.76614 0;
#X floatatom 123 240 5 0 0 0 - - -, f 5;
#X obj 102 1775 dac~, f 34;
#X obj 480 155 hsl 128 15 0 1 0 0 empty empty empty -2 -8 0 10 #acffac
#000000 #000000 0 1;
#X obj 690 143 bop.palette;
#X obj 342 355 scale 0.07 1 0 1;
#X obj 104 683 bop.casio;
#A saved 0 0 0 0.0141963 0.961957 0.184783 1 0.0190217 0 0 0;
#X msg 339 382 filter \$1;
#X msg 484 426 wave-1 \$1;
#X obj 487 373 * 7;
#X obj 105 181 s plant1-slider;
#X obj 105 151 hsl 128 15 0 1 0 0 empty empty empty -2 -8 0 10 #ff8080
#000000 #000000 0 1;
#X obj 103 210 r plant1;
#X obj 153 291 r plant1-slider;
#X obj 426 692 bop.harp;
#A saved 1;
#X obj 575 383 bop.noteslider;
#A saved 1.16576 0 1;
#X obj 573 496 bop.notefx;
#A saved 0 0.244286 0 0 100 127 1 0 0;
#X msg 528 353 noteslider \$1;
#X obj 480 185 s plant3-slider;
#X obj 480 215 r plant3;
#X obj 490 295 r plant3-slider;
#X connect 2 0 3 0;
#X connect 2 1 3 1;
#X connect 3 0 14 0;
#X connect 3 1 14 1;
#X connect 4 2 5 2;
#X connect 5 2 18 2;
#X connect 6 0 4 3;
#X connect 7 0 21 0;
#X connect 7 0 29 0;
#X connect 8 0 7 0;
#X connect 9 0 17 0;
#X connect 9 0 6 0;
#X connect 10 0 9 0;
#X connect 12 0 2 0;
#X connect 12 1 2 1;
#X connect 15 0 30 0;
#X connect 17 0 19 0;
#X connect 18 0 12 0;
#X connect 18 1 12 1;
#X connect 19 0 18 3;
#X connect 20 0 18 3;
#X connect 21 0 20 0;
#X connect 23 0 22 0;
#X connect 24 0 13 0;
#X connect 24 0 10 0;
#X connect 25 0 9 0;
#X connect 26 0 12 0;
#X connect 26 1 12 1;
#X connect 27 2 28 2;
#X connect 28 2 26 2;
#X connect 29 0 27 3;
#X connect 31 0 11 0;
#X connect 31 0 8 0;
#X connect 32 0 7 0;
