#N canvas 211 94 1259 778 10;
#X declare -path ./bop;
#X declare -path ./pdfm;
#X obj 40 25 declare -path ./bop;
#X text 1395 1930 comment;
#X floatatom 46 311 5 0 0 0 - - - 0;
#X obj 45 370 bop.noteslider;
#A saved 1.80163 0 4.09156;
#X msg 46 332 noteslider \$1;
#X msg 275 340 noteslider \$1;
#X obj 275 370 bop.noteslider;
#A saved 1.41304 0 3.77046;
#X obj 275 631 bop.glok;
#A saved 1;
#X obj 45 630 bop.synth;
#A saved 0.01 0.782609 0.277174 0.0108696 0.0163043 0 0.0869565 0 0.0128439 0.0927665 0.01 0.376779 0 0.0240124 0.01;
#X obj 45 160 r plant1;
#X obj 45 220 sub.plants.filter-and-scale;
#X floatatom 276 311 5 0 0 0 - - - 0;
#X obj 275 220 sub.plants.filter-and-scale;
#X obj 275 160 r plant2;
#X floatatom 285 190 5 0 0 0 - - - 0;
#X floatatom 65 190 5 0 0 0 - - - 0;
#X obj 278 988 *~ 0.7;
#X obj 46 993 *~ 0.7;
#X obj 361 522 unpack;
#X obj 361 547 + 24;
#X obj 361 572 pack;
#X obj 96 524 unpack;
#X obj 96 574 pack;
#X obj 96 549 + 12;
#X obj 63 274 hsl 128 15 0 1 0 0 empty plant1-slider r\ plant1-slider -2 -8 0 10 #fcfcfc #000000 #000000 0 1;
#X obj 288 278 hsl 128 15 0 1 0 0 empty plant2-slider r\ plant2-slider -2 -8 0 10 #fcfcfc #000000 #000000 0 1;
#X obj 47 53 declare -path ./pdfm;
#X obj 181 24 inlet;
#X obj 181 54 == \$1;
#X obj 181 110 switch~;
#X obj 181 80 tgl 16 0 empty empty ENABLE 20 10 0 10 #00ff04 #000000 #000000 0 1;
#X obj 735 248 fm-operator;
#A saved 293.665 1 1 1 0 0.575197 0.152542 0.5 0.8 0.2 0 0 0.092437;
#X obj 758 127 snapshot~;
#X obj 540 140 bng 15 250 50 0 empty empty empty 17 7 0 10 #fcfcfc #000000 #000000;
#X obj 541 85 tgl 15 0 empty empty empty 17 7 0 10 #fcfcfc #000000 #000000 0 1;
#X msg 758 180 fm \$1;
#X obj 758 99 osc~ 0.01;
#X obj 900 250 fm-operator;
#A saved 293.665 1 1 1 0 1 0.01 0.59322 0.8 0.2 0.159664 1 0.0168067;
#X obj 734 827 clip~ -0.9 0.9;
#X obj 734 792 *~ 0.5;
#X obj 1065 252 fm-operator;
#A saved 293.665 1 1 2 0 1 0.355932 0.59322 0.8 0.2 0 1 0.0168067;
#X obj 1222 252 fm-operator;
#A saved 293.665 1 1 3 0 1 0 0.59322 0.8 0.2 0 0 0.00840336;
#X obj 758 152 sub.bop.util.scale -1 1 0.1 0.6;
#X msg 876 180 62 127;
#X obj 500 511 *~;
#X obj 500 449 noise~;
#X obj 499 584 lop~ 100;
#X obj 543 414 snapshot~;
#X obj 543 439 sub.bop.util.scale -1 1 0.1 1;
#X obj 543 386 osc~ 0.05;
#X obj 543 520 * 5000;
#X obj 499 547 *~ 0.1;
#X msg 515 484 0.1;
#X obj 691 17 loadbang;
#X msg 668 68 1;
#X obj 541 113 metro 50;
#X obj 736 696 bp~ 70 1;
#X obj 45 1051 throw~ left;
#X obj 270 1037 throw~ right;
#X obj 664 919 throw~ left;
#X obj 739 921 throw~ right;
#X connect 2 0 4 0;
#X connect 3 2 21 0;
#X connect 4 0 3 3;
#X connect 5 0 6 3;
#X connect 6 2 18 0;
#X connect 7 0 16 0;
#X connect 8 0 17 0;
#X connect 9 0 15 0;
#X connect 9 0 10 0;
#X connect 10 0 2 0;
#X connect 11 0 5 0;
#X connect 12 0 11 0;
#X connect 13 0 14 0;
#X connect 13 0 12 0;
#X connect 16 0 58 0;
#X connect 17 0 57 0;
#X connect 18 0 19 0;
#X connect 18 1 20 1;
#X connect 19 0 20 0;
#X connect 20 0 7 2;
#X connect 21 0 23 0;
#X connect 21 1 22 1;
#X connect 22 0 8 2;
#X connect 23 0 22 0;
#X connect 24 0 2 0;
#X connect 25 0 11 0;
#X connect 27 0 28 0;
#X connect 28 0 30 0;
#X connect 30 0 29 0;
#X connect 30 0 34 0;
#X connect 31 0 56 0;
#X connect 32 0 42 0;
#X connect 33 0 32 0;
#X connect 33 0 47 0;
#X connect 34 0 55 0;
#X connect 35 0 31 0;
#X connect 36 0 32 0;
#X connect 37 0 31 1;
#X connect 38 0 59 0;
#X connect 38 0 60 0;
#X connect 39 0 38 0;
#X connect 40 0 31 1;
#X connect 41 0 31 1;
#X connect 42 0 35 0;
#X connect 43 0 31 0;
#X connect 43 0 37 0;
#X connect 43 0 40 0;
#X connect 43 0 41 0;
#X connect 44 0 51 0;
#X connect 45 0 44 0;
#X connect 46 0 39 0;
#X connect 47 0 48 0;
#X connect 48 0 50 0;
#X connect 49 0 47 0;
#X connect 50 0 46 1;
#X connect 51 0 46 0;
#X connect 52 0 44 1;
#X connect 53 0 54 0;
#X connect 53 0 43 0;
#X connect 53 0 52 0;
#X connect 54 0 34 0;
#X connect 55 0 33 0;
#X connect 56 0 39 0;
