#N canvas 249 37 1221 891 10;
#X declare -path ./bop;
#X obj 140 40 declare -path ./bop;
#X text 1400 1879 comment;
#X floatatom 51 260 5 0 0 0 - - -, f 5;
#X obj 53 1000 bop.reverb;
#A saved 0.866848 0.441576 1.8913 0.0251917 1 0 0;
#X obj 50 319 bop.noteslider;
#A saved 1.80163 0 3.64202;
#X msg 51 281 noteslider \$1;
#X msg 280 289 noteslider \$1;
#X obj 280 319 bop.noteslider;
#A saved 1.41304 0 3.51358;
#X obj 280 650 bop.glok;
#A saved 1;
#X obj 50 579 bop.synth;
#A saved 0.01 0.782609 0.277174 0 0.0163043 0 0.0869565 0 0.0128439
0.0927665 0.01 0.376779 0 0.0240124 0.01;
#X obj 50 119 r plant1;
#X obj 50 179 sub.plants.filter-and-scale;
#X floatatom 281 260 5 0 0 0 - - -, f 5;
#X obj 280 179 sub.plants.filter-and-scale;
#X obj 280 119 r plant2;
#X floatatom 290 149 5 0 0 0 - - -, f 5;
#X floatatom 70 149 5 0 0 0 - - -, f 5;
#X obj 53 1203 dac~, f 34;
#X obj 629 148 bop.palette;
#X obj 185 474 unpack;
#X obj 185 499 - 12;
#X obj 185 524 pack;
#X obj 282 940 *~ 0.7;
#X obj 51 940 *~ 0.7;
#X obj 97 225 hsl 128 15 0 1 0 0 empty plant1-slider r\ plant1-slider
-2 -8 0 10 #fcfcfc #000000 #000000 0 1;
#X obj 290 226 hsl 128 15 0 1 0 0 empty plant2-slider r\ plant2-slider
-2 -8 0 10 #fcfcfc #000000 #000000 0 1;
#X connect 2 0 5 0;
#X connect 3 0 17 0;
#X connect 3 1 17 1;
#X connect 4 2 19 0;
#X connect 5 0 4 3;
#X connect 6 0 7 3;
#X connect 7 2 8 2;
#X connect 8 0 22 0;
#X connect 9 0 23 0;
#X connect 10 0 16 0;
#X connect 10 0 11 0;
#X connect 11 0 2 0;
#X connect 12 0 6 0;
#X connect 13 0 12 0;
#X connect 14 0 15 0;
#X connect 14 0 13 0;
#X connect 19 0 20 0;
#X connect 19 1 21 1;
#X connect 20 0 21 0;
#X connect 21 0 9 2;
#X connect 22 0 3 1;
#X connect 23 0 3 0;
#X connect 24 0 2 0;
#X connect 25 0 12 0;
