#N canvas 0 32 1167 1057 12;
#X declare -path ./bop;
#X declare -path ./pdfm;
#X declare -path ./newbop/bop.p;
#X obj 56 36 declare -path ./bop;
#X obj 56 65 declare -path ./pdfm;
#X obj 551 340 fm-operator;
#A saved 130.813 1 1 1 0 0.158415 0 0.915254 1 0.627119 0.0840336 1 0.092437;
#X obj 714 341 fm-operator;
#A saved 130.813 1 1 4 0.1 0.226891 0 1 1 0.322034 0.109244 0.462185 1;
#X obj 551 763 clip~ -0.9 0.9;
#X obj 551 728 *~ 0.5;
#X msg 784 268 48 127;
#X obj 882 342 fm-operator;
#A saved 130.813 1 1 16 0.1 0 0 1 1 0.322034 0 0 0;
#X msg 551 294 fm \$1;
#X obj 654 86 loadbang;
#X obj 516 849 throw~ left;
#X obj 605 849 throw~ right;
#X floatatom 311 281 5 0 0 0 - - - 0;
#X obj 357 246 hsl 128 15 0 1 0 0 empty plant1-slider r\ plant1-slider -2 -8 0 10 #fcfcfc #000000 #000000 0 1;
#X obj 65 280 expr if($f1 < 0.07 \, 0 \, 0.07);
#X text 28 379 noteslider 0 - 1 \; chord 0 - 15 \; shuffle 0 - 1 \; root 0 - 127 \; octaves 0 - 6 \; velocity 0 - 1 \; duration 0 - 1 \;;
#X obj 23 311 loadbang;
#X obj 322 430 newbop/sub.bop.strum;
#X msg 313 326 noteslider \$1;
#X msg 49 599 chord 15 \, root 48 \, octaves 3 \, shuffle 0 \, velocity 0.7 \, duration 1;
#X obj 55 97 declare -path ./newbop/bop.p;
#X obj 113 173 bop.p.blineseq;
#X obj 111 209 bop.p.bline~;
#X obj 326 39 inlet;
#X obj 326 69 == \$1;
#X obj 326 125 switch~;
#X obj 326 95 tgl 16 0 empty empty ENABLE 20 10 0 10 #00ff04 #000000 #000000 0 1;
#X obj 551 229 bop.p.blineseq;
#X obj 551 263 bop.p.bline~;
#X msg 551 202 loop 0.1 20000 0.3 30000;
#X connect 2 0 5 0;
#X connect 3 0 2 1;
#X connect 4 0 10 0;
#X connect 4 0 11 0;
#X connect 5 0 4 0;
#X connect 6 0 3 0;
#X connect 6 0 7 0;
#X connect 6 0 2 0;
#X connect 7 0 2 1;
#X connect 8 0 2 0;
#X connect 9 0 6 0;
#X connect 9 0 29 0;
#X connect 12 0 18 0;
#X connect 13 0 12 0;
#X connect 16 0 19 0;
#X connect 18 0 17 1;
#X connect 19 0 17 1;
#X connect 21 0 22 0;
#X connect 23 0 24 0;
#X connect 24 0 26 0;
#X connect 26 0 25 0;
#X connect 27 0 28 0;
#X connect 28 1 8 0;
#X connect 29 0 27 0;
