#N canvas 129 37 1470 891 10;
#X declare -path ./bop;
#X declare -path ./pdfm;
#X obj 132 43 declare -path ./bop;
#X text 993 1940 comment;
#X obj 103 374 bop.noteslider;
#A saved 0 0 3.66304;
#X msg 103 346 noteslider \$1;
#X floatatom 481 326 5 0 0 0 - - -, f 5;
#X obj 480 230 sub.plants.filter-and-scale;
#X floatatom 104 312 5 0 0 0 - - -, f 5;
#X obj 103 216 sub.plants.filter-and-scale;
#X floatatom 490 200 5 0 0 0 - - -, f 5;
#X floatatom 123 195 5 0 0 0 - - -, f 5;
#X obj 110 1470 dac~, f 34;
#X obj 104 683 bop.casio;
#A saved 0 3.61413 0.179348 0.0340886 1 0.891304 0 0 0 0 1;
#X msg 339 382 filter \$1;
#X msg 484 426 wave-1 \$1;
#X obj 487 373 * 7;
#X obj 103 165 r plant1;
#X obj 560 560 bop.harp;
#A saved 0;
#X obj 575 383 bop.noteslider;
#A saved 0 0 3.66304;
#X msg 528 353 noteslider \$1;
#X obj 110 1060 *~ 0.7;
#X obj 360 1050 *~ 0.7;
#X obj 240 570 unpack;
#X obj 240 595 - 12;
#X obj 240 620 pack;
#X obj 480 170 r plant2;
#X obj 141 273 hsl 128 15 0 1 0 0 empty plant1-slider r\ plant1-slider
-2 -8 0 10 #fcfcfc #000000 #000000 0 1;
#X obj 513 279 hsl 128 15 0 1 0 0 empty plant2-slider r\ plant2-slider
-2 -8 0 10 #fcfcfc #000000 #000000 0 1;
#X obj 130 67 declare -path ./pdfm;
#X obj 283 42 inlet;
#X obj 283 72 == \$1;
#X obj 283 128 switch~;
#X obj 283 98 tgl 16 0 empty empty ENABLE 20 10 0 10 #00ff04 #000000
#000000 0 1;
#X obj 304 305 sub.bop.util.scale 0.07 1 0 1;
#X obj 1247 351 fm-operator;
#A saved 195.998 1 1 1 0 0.299888 0.01 0.5 0.8 0.2 0 0 0.294118;
#X obj 1410 352 fm-operator;
#A saved 195.998 1 1 1 0 0 0.01 0.5 0.8 0.2 0 0 1;
#X obj 1245 909 clip~ -0.9 0.9;
#X msg 1513 276 0;
#X obj 1578 353 fm-operator;
#A saved 195.998 1 1 1 0 0 0.01 0.5 0.8 0.2 0 0 1;
#X obj 1247 252 snapshot~;
#X obj 1308 229 bng 15 250 50 0 empty empty empty 17 7 0 10 #fcfcfc
#000000 #000000;
#X obj 1309 174 tgl 15 0 empty empty empty 17 7 0 10 #fcfcfc #000000
#000000 0 1;
#X msg 1247 305 fm \$1;
#X obj 1247 224 osc~ 0.01;
#X obj 1739 354 fm-operator;
#A saved 195.998 1 1 1 0 0 0.01 0.5 0.8 0.2 0 0 1;
#X msg 1447 279 55 127;
#X obj 1247 277 sub.bop.util.scale -1 1 0.1 0.3;
#X obj 1366 89 loadbang;
#X msg 1312 134 1;
#X obj 1309 202 metro 50;
#X obj 1247 809 *~ 0.2;
#X obj 1013 423 *~;
#X obj 1013 361 noise~;
#X obj 1012 491 lop~ 100;
#X obj 1056 326 snapshot~;
#X obj 1056 351 sub.bop.util.scale -1 1 0.1 1;
#X obj 1056 432 * 5000;
#X obj 1012 459 *~ 0.1;
#X msg 1028 396 0.1;
#X obj 1081 294 osc~ 0.02;
#X obj 1247 856 bp~ 600 1;
#X floatatom 1293 777 5 0 0 0 - - -, f 5;
#X obj 1247 762 *~ 0.2;
#X obj 101 1206 bop.reverb;
#A saved 0.830978 0.75 1.8913 0.353261 1 0 0;
#X connect 2 2 21 0;
#X connect 3 0 2 3;
#X connect 4 0 14 0;
#X connect 4 0 18 0;
#X connect 5 0 4 0;
#X connect 6 0 3 0;
#X connect 6 0 32 0;
#X connect 7 0 6 0;
#X connect 11 0 19 0;
#X connect 12 0 11 3;
#X connect 13 0 11 3;
#X connect 14 0 13 0;
#X connect 15 0 9 0;
#X connect 15 0 7 0;
#X connect 16 0 20 0;
#X connect 17 2 16 2;
#X connect 18 0 17 3;
#X connect 19 0 62 0;
#X connect 20 0 62 1;
#X connect 21 0 22 0;
#X connect 21 1 23 1;
#X connect 22 0 23 0;
#X connect 23 0 11 2;
#X connect 24 0 8 0;
#X connect 24 0 5 0;
#X connect 25 0 6 0;
#X connect 26 0 4 0;
#X connect 28 0 29 0;
#X connect 29 0 31 0;
#X connect 29 0 40 0;
#X connect 31 0 30 0;
#X connect 32 0 12 0;
#X connect 33 0 61 0;
#X connect 34 0 33 1;
#X connect 35 0 62 0;
#X connect 35 0 62 1;
#X connect 36 0 33 0;
#X connect 37 0 34 1;
#X connect 38 0 45 0;
#X connect 39 0 38 0;
#X connect 39 0 53 0;
#X connect 40 0 48 0;
#X connect 41 0 33 0;
#X connect 42 0 38 0;
#X connect 43 0 37 1;
#X connect 44 0 34 0;
#X connect 44 0 37 0;
#X connect 44 0 33 0;
#X connect 44 0 43 0;
#X connect 45 0 41 0;
#X connect 46 0 47 0;
#X connect 46 0 44 0;
#X connect 46 0 57 0;
#X connect 47 0 40 0;
#X connect 48 0 39 0;
#X connect 49 0 59 0;
#X connect 50 0 56 0;
#X connect 51 0 50 0;
#X connect 52 0 49 0;
#X connect 53 0 54 0;
#X connect 54 0 55 0;
#X connect 55 0 52 1;
#X connect 55 0 60 0;
#X connect 56 0 52 0;
#X connect 57 0 50 1;
#X connect 58 0 53 0;
#X connect 59 0 35 0;
#X connect 60 0 59 1;
#X connect 61 0 49 0;
#X connect 62 0 10 0;
#X connect 62 1 10 1;
