#N canvas 257 132 1418 965 12;
#X declare -path ./bop;
#X declare -path ./pdfm;
#X obj 56 36 declare -path ./bop;
#X obj 56 65 declare -path ./pdfm;
#X obj 551 340 fm-operator;
#A saved 130.813 1 1 1 0 0.246068 0 0.915254 1 0.627119 0.0840336 1 0.092437;
#X obj 714 341 fm-operator;
#A saved 130.813 1 1 4 0.1 0.226891 0 1 1 0.322034 0.109244 0.462185 1;
#X obj 551 763 clip~ -0.9 0.9;
#X obj 551 728 *~ 0.5;
#X msg 784 268 48 127;
#X obj 882 342 fm-operator;
#A saved 130.813 1 1 16 0.1 0 0 1 1 0.322034 0 0 0;
#X obj 551 241 snapshot~;
#X obj 630 218 bng 15 250 50 0 empty empty empty 17 7 0 10 #fcfcfc #000000 #000000;
#X obj 631 163 tgl 15 0 empty empty empty 17 7 0 10 #fcfcfc #000000 #000000 0 1;
#X msg 551 294 fm \$1;
#X obj 551 214 osc~ 0.01;
#X obj 551 266 sub.bop.util.scale -1 1 0.1 0.3;
#X obj 654 86 loadbang;
#X msg 631 137 1;
#X obj 631 191 metro 50;
#X obj 516 849 throw~ left;
#X obj 605 849 throw~ right;
#X obj 64 1062 dac~, f 12;
#X obj 64 916 bop/bop.reverb;
#A saved 0.669565 0.402174 2 0.782609 1 0 0;
#X obj 63 872 catch~ left;
#X obj 160 872 catch~ right;
#X floatatom 311 281 5 0 0 0 - - - 0;
#X obj 310 340 bop.noteslider;
#A saved 1.80163 0 3.64202;
#X msg 311 302 noteslider \$1;
#X obj 357 246 hsl 128 15 0 1 0 0 empty plant1-slider r\ plant1-slider -2 -8 0 10 #fcfcfc #000000 #000000 0 1;
#X obj 65 280 expr if($f1 < 0.07 \, 0 \, 0.07);
#X connect 2 0 5 0;
#X connect 3 0 2 1;
#X connect 4 0 17 0;
#X connect 4 0 18 0;
#X connect 5 0 4 0;
#X connect 6 0 3 0;
#X connect 6 0 7 0;
#X connect 6 0 2 0;
#X connect 7 0 2 1;
#X connect 8 0 13 0;
#X connect 9 0 8 0;
#X connect 10 0 16 0;
#X connect 11 0 2 0;
#X connect 12 0 8 0;
#X connect 13 0 11 0;
#X connect 14 0 15 0;
#X connect 14 0 6 0;
#X connect 15 0 10 0;
#X connect 16 0 9 0;
#X connect 20 0 19 0;
#X connect 20 1 19 1;
#X connect 21 0 20 0;
#X connect 22 0 20 1;
#X connect 23 0 25 0;
#X connect 24 2 2 0;
#X connect 25 0 24 3;
#X connect 26 0 23 0;
