#N canvas 543 51 1185 891 10;
#X declare -path ./bop;
#X declare -path ./pdfm;
#X obj 56 36 declare -path ./bop;
#X msg 64 339 noteslider \$1;
#X floatatom 65 250 5 0 0 0 - - - 0;
#X floatatom 64 312 5 0 0 0 - - - 0;
#X obj 65 280 expr if($f1 < 0.07 \, 0 \, 0.07);
#X obj 64 642 bop.casio;
#A saved 1.75 0 0.9 0.01 0.793478 0.228261 1 0 0 0 0;
#X msg 284 551 filter \$1;
#X obj 63 148 r plant1;
#X obj 82 202 hsl 128 15 0 1 0 0 empty plant1-slider r\ plant1-slider -2 -8 0 10 #fcfcfc #000000 #000000 0 1;
#X obj 56 65 declare -path ./pdfm;
#X text 578 1270 comment;
#X obj 213 34 inlet;
#X obj 213 64 == \$1;
#X obj 213 120 switch~;
#X obj 213 90 tgl 16 0 empty empty ENABLE 20 10 0 10 #00ff04 #000000 #000000 0 1;
#X obj 285 517 sub.bop.util.scale 0.07 1 0 0.9;
#X obj 61 959 throw~ left;
#X obj 136 961 throw~ right;
#X text 319 382 noteslider 0 - 1 \; chord 0 - 15 \; shuffle 0 - 1 \; root 0 - 127 \; octaves 0 - 6 \; velocity 0 - 1 \; duration 0 - 1 \;;
#X obj 314 314 loadbang;
#X obj 79 523 newbop/sub.bop.strum;
#X obj 551 545 bng 16 250 50 0 empty empty empty 0 -8 0 10 #fcfcfc #000000 #000000;
#X msg 550 573 48 0;
#X obj 551 520 select 0;
#X msg 314 343 chord 15 \, root 48 \, octaves 3 \, shuffle 0 \, velocity 0.7 \, duration 3;
#X text 623 519 Added this to turn the note off override the duration;
#X text 671 352 Changed the duration as the it was cutting out the held note;
#X obj 63 930 *~ 1.5;
#X obj 138 932 *~ 1.5;
#X connect 1 0 20 1;
#X connect 2 0 4 0;
#X connect 2 0 15 0;
#X connect 3 0 1 0;
#X connect 3 0 23 0;
#X connect 4 0 3 0;
#X connect 5 0 27 0;
#X connect 5 1 28 0;
#X connect 6 0 5 3;
#X connect 7 0 2 0;
#X connect 8 0 2 0;
#X connect 11 0 12 0;
#X connect 12 0 14 0;
#X connect 14 0 13 0;
#X connect 15 0 6 0;
#X connect 19 0 24 0;
#X connect 20 1 5 2;
#X connect 21 0 22 0;
#X connect 22 0 5 2;
#X connect 23 0 21 0;
#X connect 24 0 20 1;
#X connect 27 0 16 0;
#X connect 28 0 17 0;
