#N canvas 351 37 768 778 10;
#X declare -path ./bop;
#X obj 140 40 declare -path ./bop;
#X text 1386 1895 comment;
#X floatatom 37 276 5 0 0 0 - - -, f 5;
#X obj 266 1105 bop.reverb;
#A saved 0.866848 0.441576 1.8913 0.0507698 1 0 0;
#X obj 36 335 bop.noteslider;
#A saved 1.80163 0 4.09156;
#X msg 37 297 noteslider \$1;
#X msg 266 305 noteslider \$1;
#X obj 266 1275 bop.mix;
#A saved 0 1.06968 0;
#X obj 36 435 bop.notefx;
#A saved 0 1.38714 0 0 100 127 1 0 0;
#X obj 266 335 bop.noteslider;
#A saved 1.41304 0 3.77046;
#X obj 266 435 bop.notefx;
#A saved -0.146341 2.12143 0 0 100 127 1 0 0;
#X obj 266 595 bop.glok;
#A saved 1;
#X obj 496 335 bop.noteslider;
#A saved 1.20109 0 3.70624;
#X obj 497 437 bop.notefx;
#A saved 0 -1.7561 0 0 100 127 1 0 0;
#X msg 496 301 noteslider \$1;
#X obj 496 595 bop.synth;
#A saved 0.0406159 0.798913 0.288043 0 0.233696 0 0.0869565 1 0.103826
0.0222754 0.0759337 0.502443 0 0.01 0.01;
#X obj 36 595 bop.synth;
#A saved 0.01 0.782609 0.277174 0.0108696 0.0163043 0 0.0869565 0 0.0128439
0.0927665 0.01 0.376779 0 0.0240124 0.01;
#X obj 36 165 r plant1;
#X obj 36 225 sub.plants.filter-and-scale;
#X floatatom 267 276 5 0 0 0 - - -, f 5;
#X obj 266 225 sub.plants.filter-and-scale;
#X floatatom 497 276 5 0 0 0 - - -, f 5;
#X obj 496 225 sub.plants.filter-and-scale;
#X obj 266 165 r plant2;
#X obj 496 165 r plant3;
#X floatatom 276 195 5 0 0 0 - - -, f 5;
#X obj 36 935 bop.mix;
#A saved 0 0.76614 0.811024;
#X obj 266 935 bop.mix;
#A saved 0 0.76614 0;
#X obj 496 935 bop.mix;
#A saved 0 0.76614 -0.80315;
#X floatatom 516 195 5 0 0 0 - - -, f 5;
#X floatatom 56 195 5 0 0 0 - - -, f 5;
#X obj 266 1395 dac~, f 34;
#X obj 36 135 s plant1-slider;
#X obj 36 105 hsl 128 15 0 1 0 0 empty empty empty -2 -8 0 10 #ff8080
#000000 #000000 0 1;
#X obj 266 105 hsl 128 15 0 1 0 0 empty empty empty -2 -8 0 10 #acffac
#000000 #000000 0 1;
#X obj 496 105 hsl 128 15 0 1 0 0 empty empty empty -2 -8 0 10 #8cc6ff
#000000 #000000 0 1;
#X obj 266 135 s plant2-slider;
#X obj 496 135 s plant3-slider;
#X obj 46 245 r plant1-slider;
#X obj 276 245 r plant2-slider;
#X obj 546 255 r plant3-slider;
#X obj 736 105 bop.palette;
#X connect 2 0 5 0;
#X connect 3 0 7 0;
#X connect 3 1 7 1;
#X connect 4 2 8 2;
#X connect 5 0 4 3;
#X connect 6 0 9 3;
#X connect 7 0 31 0;
#X connect 7 1 31 1;
#X connect 8 2 16 2;
#X connect 9 2 10 2;
#X connect 10 2 11 2;
#X connect 11 0 27 0;
#X connect 11 1 27 1;
#X connect 12 2 13 2;
#X connect 13 2 15 2;
#X connect 14 0 12 3;
#X connect 15 0 28 0;
#X connect 15 1 28 1;
#X connect 16 0 26 0;
#X connect 16 1 26 1;
#X connect 17 0 30 0;
#X connect 17 0 18 0;
#X connect 18 0 2 0;
#X connect 19 0 6 0;
#X connect 20 0 19 0;
#X connect 21 0 14 0;
#X connect 22 0 21 0;
#X connect 23 0 25 0;
#X connect 23 0 20 0;
#X connect 24 0 29 0;
#X connect 24 0 22 0;
#X connect 26 0 3 0;
#X connect 26 1 3 1;
#X connect 27 0 3 0;
#X connect 27 1 3 1;
#X connect 28 0 3 0;
#X connect 28 1 3 1;
#X connect 33 0 32 0;
#X connect 34 0 36 0;
#X connect 35 0 37 0;
#X connect 38 0 2 0;
#X connect 39 0 19 0;
#X connect 40 0 21 0;
