#N canvas 453 32 1195 1057 12;
#X declare -path ./bop;
#X declare -path ./pdfm;
#X declare -path ./newbop/bop.p;
#X obj 32 8 declare -path ./bop;
#X obj 30 32 declare -path ./pdfm;
#X obj 617 301 fm-operator;
#A saved 466.164 1 1 1 0 0.134954 0.152542 0.5 0.8 0.2 0.210084 0.638655 0.117647;
#X msg 640 233 fm \$1;
#X obj 618 728 clip~ -0.9 0.9;
#X obj 618 693 *~ 0.5;
#X obj 585 77 loadbang;
#X msg 758 233 60 127;
#X obj 615 787 throw~ left;
#X obj 690 789 throw~ right;
#X obj 240 29 inlet;
#X obj 240 59 == \$1;
#X obj 240 115 switch~;
#X obj 240 85 tgl 16 0 empty empty ENABLE 20 10 0 10 #00ff04 #000000 #000000 0 1;
#X obj 26 68 declare -path ./newbop/bop.p;
#X obj 26 103 bop.p.blineseq;
#X obj 26 137 bop.p.bline~;
#X text 99 308 noteslider 0 - 1 \; chord 0 - 15 \; shuffle 0 - 1 \; root 0 - 127 \; octaves 0 - 6 \; velocity 0 - 1 \; duration 0 - 1 \;;
#X obj 640 159 bop.p.blineseq;
#X obj 640 193 bop.p.bline~;
#X msg 640 132 loop 0.1 20000 0.3 20000;
#X msg 415 648 noteslider \$1;
#X obj 335 528 bop.p.blineseq;
#X obj 335 562 bop.p.bline~;
#X obj 278 704 newbop/sub.bop.strum;
#X obj 415 749 stripnote;
#X obj 335 501 r drone-control;
#X obj 415 787 s \$0-fm;
#X obj 494 247 r \$0-fm;
#X msg 222 438 chord 15 \, root 60 \, octaves 1 \, shuffle 0 \, velocity 0.7 \, duration 1;
#X obj 775 301 fm-operator;
#A saved 261.626 1 1 3 0 0 0.01 0.5 0.8 0.2 1 1 0.487395;
#X obj 943 302 fm-operator;
#A saved 261.626 1 1 6 0 1 0.01 0.5 0.8 0.2 1 1 0.0588235;
#X obj 1104 303 fm-operator;
#A saved 261.626 1 1 9 2 1 0.01 0 0 0.2 0.403361 0.420168 0.420168;
#X obj 256 931 *~;
#X obj 256 869 noise~;
#X obj 256 995 lop~ 100;
#X obj 256 963 *~ 0.1;
#X msg 274 904 0.1;
#X obj 256 1029 s~ \$0-noise;
#X obj 324 938 bop.p.blineseq;
#X obj 324 972 bop.p.bline~;
#X msg 511 745 1;
#X obj 524 792 tgl 19 0 empty empty empty 0 -10 0 12 #fcfcfc #000000 #000000 0 1;
#X obj 522 709 r~ \$0-noise;
#X msg 327 895 7500 0 7500 375 0 0 0 375 3750 0 3750 375 0 0 0 375 1500 0 1500 375 0 0 0 375 750 0 750 500 0 0 0 500;
#X obj 524 829 metro 100000;
#X connect 2 0 5 0;
#X connect 3 0 2 0;
#X connect 4 0 8 0;
#X connect 4 0 9 0;
#X connect 5 0 4 0;
#X connect 6 0 7 0;
#X connect 6 0 20 0;
#X connect 6 0 29 0;
#X connect 6 0 41 0;
#X connect 6 0 37 0;
#X connect 7 0 2 0;
#X connect 7 0 30 0;
#X connect 7 0 31 0;
#X connect 7 0 32 0;
#X connect 10 0 11 0;
#X connect 11 0 13 0;
#X connect 13 0 12 0;
#X connect 15 0 16 0;
#X connect 18 0 19 0;
#X connect 19 1 3 0;
#X connect 20 0 18 0;
#X connect 21 0 24 1;
#X connect 22 0 23 0;
#X connect 23 1 21 0;
#X connect 24 1 25 0;
#X connect 25 0 27 0;
#X connect 26 0 22 0;
#X connect 28 0 2 0;
#X connect 29 0 24 1;
#X connect 30 0 2 1;
#X connect 31 0 30 1;
#X connect 32 0 31 1;
#X connect 33 0 36 0;
#X connect 34 0 33 0;
#X connect 35 0 38 0;
#X connect 36 0 35 0;
#X connect 37 0 33 1;
#X connect 39 0 40 0;
#X connect 40 1 35 1;
#X connect 41 0 42 0;
#X connect 42 0 45 0;
#X connect 43 0 4 0;
#X connect 44 0 39 0;
#X connect 45 0 44 0;
