#N canvas 0 32 1728 1057 12;
#X declare -path ./bop;
#X declare -path ./pdfm;
#X declare -path ./newbop/bop.p;
#X obj 56 36 declare -path ./bop;
#X obj 56 65 declare -path ./pdfm;
#X msg 313 743 noteslider \$1;
#X obj 1026 225 fm-operator;
#A saved 195.998 1 1 1 0 0.092448 0.01 0.5 0.8 0.2 0 0 0.294118;
#X obj 1189 226 fm-operator;
#A saved 195.998 1 1 1 0 0 0.01 0.5 0.8 0.2 0 0 1;
#X obj 1024 783 clip~ -0.9 0.9;
#X obj 1357 227 fm-operator;
#A saved 195.998 1 1 1 0 0 0.01 0.5 0.8 0.2 0 0 1;
#X obj 1518 228 fm-operator;
#A saved 195.998 1 1 1 0 0 0.01 0.5 0.8 0.2 0 0 1;
#X msg 1230 194 55 127;
#X obj 529 15 loadbang;
#X obj 514 313 *~;
#X obj 514 251 noise~;
#X obj 514 377 lop~ 100;
#X obj 514 345 *~ 0.1;
#X msg 532 286 0.1;
#X obj 1026 730 bp~ 600 1;
#X floatatom 1089 686 5 0 0 0 - - - 0;
#X obj 1026 632 *~ 0.2;
#X obj 955 834 throw~ left;
#X obj 1062 833 throw~ right;
#X obj 291 32 inlet;
#X obj 291 62 == \$1;
#X obj 291 118 switch~;
#X obj 291 88 tgl 16 0 empty empty ENABLE 20 10 0 10 #00ff04 #000000 #000000 0 1;
#X obj 55 97 declare -path ./newbop/bop.p;
#X obj 233 623 bop.p.blineseq;
#X obj 233 657 bop.p.bline~;
#X text 373 426 noteslider 0 - 1 \; chord 0 - 15 \; shuffle 0 - 1 \; root 0 - 127 \; octaves 0 - 6 \; velocity 0 - 1 \; duration 0 - 1 \;;
#X obj 176 799 newbop/sub.bop.strum;
#X obj 313 844 stripnote;
#X msg 555 78 loop 500 5000 5000 5000;
#X obj 555 109 bop.p.blineseq;
#X obj 555 143 bop.p.bline~;
#X obj 1028 124 bop.p.blineseq;
#X obj 1028 158 bop.p.bline~;
#X msg 1026 186 fm \$1;
#X msg 118 546 chord 15 \, root 55 \, octaves 1 \, shuffle 0 \, velocity 0.7 \, duration 1;
#X obj 313 881 s \$0-fm;
#X obj 1162 194 r \$0-fm;
#X obj 514 411 s~ \$0-noise;
#X obj 929 632 r~ \$0-noise;
#X obj 636 181 s \$0-cf;
#X obj 1090 632 r \$0-cf;
#X obj 233 596 r drone-control;
#X obj 582 320 bop.p.blineseq;
#X obj 582 354 bop.p.bline~;
#X msg 583 276 10000 0 10000 500 0 0 0 500 5000 0 5000 500 0 0 0 500 2000 0 2000 500 0 0 0 500 1000 0 1000 500 0 0 0 500;
#X obj 782 210 metro 300000;
#X msg 769 127 1;
#X obj 782 174 tgl 19 0 empty empty empty 0 -10 0 12 #fcfcfc #000000 #000000 0 1;
#X obj 1026 683 *~ 0.5;
#X msg 1028 97 loop 0.1 20000 0.25 20000;
#X connect 2 0 28 1;
#X connect 3 0 17 0;
#X connect 4 0 3 1;
#X connect 5 0 18 0;
#X connect 5 0 19 0;
#X connect 6 0 4 1;
#X connect 7 0 6 1;
#X connect 8 0 4 0;
#X connect 8 0 6 0;
#X connect 8 0 3 0;
#X connect 8 0 7 0;
#X connect 9 0 8 0;
#X connect 9 0 14 0;
#X connect 9 0 30 0;
#X connect 9 0 36 0;
#X connect 9 0 51 0;
#X connect 9 0 48 0;
#X connect 10 0 13 0;
#X connect 11 0 10 0;
#X connect 12 0 39 0;
#X connect 13 0 12 0;
#X connect 14 0 10 1;
#X connect 15 0 5 0;
#X connect 16 0 15 1;
#X connect 17 0 50 0;
#X connect 20 0 21 0;
#X connect 21 0 23 0;
#X connect 23 0 22 0;
#X connect 25 0 26 0;
#X connect 26 1 2 0;
#X connect 28 1 29 0;
#X connect 29 0 37 0;
#X connect 30 0 31 0;
#X connect 31 0 32 0;
#X connect 32 1 41 0;
#X connect 33 0 34 0;
#X connect 34 1 35 0;
#X connect 35 0 3 0;
#X connect 36 0 28 1;
#X connect 38 0 3 0;
#X connect 38 0 4 0;
#X connect 38 0 6 0;
#X connect 38 0 7 0;
#X connect 40 0 5 0;
#X connect 42 0 16 0;
#X connect 43 0 25 0;
#X connect 44 0 45 0;
#X connect 45 1 12 1;
#X connect 46 0 44 0;
#X connect 47 0 46 0;
#X connect 48 0 49 0;
#X connect 49 0 47 0;
#X connect 50 0 15 0;
#X connect 51 0 33 0;
