#N canvas 1 32 1728 1057 12;
#X declare -path ./bop;
#X declare -path ./pdfm;
#X declare -path ./newbop/bop.p;
#X obj 56 36 declare -path ./bop;
#X obj 56 65 declare -path ./pdfm;
#X msg 313 743 noteslider \$1;
#X obj 743 272 fm-operator;
#A saved 195.998 1 1 1 0 0.3 0.01 0.5 0.8 0.2 0 0 0.294118;
#X obj 906 273 fm-operator;
#A saved 195.998 1 1 1 0 0 0.01 0.5 0.8 0.2 0 0 1;
#X obj 741 830 clip~ -0.9 0.9;
#X obj 1074 274 fm-operator;
#A saved 195.998 1 1 1 0 0 0.01 0.5 0.8 0.2 0 0 1;
#X obj 1235 275 fm-operator;
#A saved 195.998 1 1 1 0 0 0.01 0.5 0.8 0.2 0 0 1;
#X msg 947 241 55 127;
#X obj 529 15 loadbang;
#X obj 743 730 *~ 0.2;
#X obj 514 313 *~;
#X obj 514 251 noise~;
#X obj 514 377 lop~ 100;
#X obj 514 345 *~ 0.1;
#X msg 532 286 0.1;
#X obj 743 777 bp~ 600 1;
#X floatatom 806 733 5 0 0 0 - - - 0;
#X obj 743 679 *~ 0.2;
#X obj 672 881 throw~ left;
#X obj 779 880 throw~ right;
#X obj 291 32 inlet;
#X obj 291 62 == \$1;
#X obj 291 118 switch~;
#X obj 291 88 tgl 16 0 empty empty ENABLE 20 10 0 10 #00ff04 #000000 #000000 0 1;
#X obj 55 97 declare -path ./newbop/bop.p;
#X obj 233 623 bop.p.blineseq;
#X obj 233 657 bop.p.bline~;
#X text 373 426 noteslider 0 - 1 \; chord 0 - 15 \; shuffle 0 - 1 \; root 0 - 127 \; octaves 0 - 6 \; velocity 0 - 1 \; duration 0 - 1 \;;
#X obj 176 799 newbop/sub.bop.strum;
#X msg 233 589 0 \, 0.6 500 0.3 0 1 1000 1 1000 0 2000;
#X obj 313 844 stripnote;
#X msg 567 145 loop 500 5000 5000 5000;
#X obj 565 177 bop.p.blineseq;
#X obj 565 211 bop.p.bline~;
#X obj 745 171 bop.p.blineseq;
#X obj 745 205 bop.p.bline~;
#X msg 745 144 loop 0.1 10000 0.3 10000;
#X msg 743 233 fm \$1;
#X msg 118 546 chord 15 \, root 55 \, octaves 1 \, shuffle 0 \, velocity 0.7 \, duration 1;
#X obj 313 881 s \$0-fm;
#X obj 879 241 r \$0-fm;
#X obj 514 411 s~ \$0-noise;
#X obj 646 679 r~ \$0-noise;
#X obj 646 249 s \$0-cf;
#X obj 807 679 r \$0-cf;
#X connect 2 0 29 1;
#X connect 3 0 18 0;
#X connect 4 0 3 1;
#X connect 5 0 19 0;
#X connect 5 0 20 0;
#X connect 6 0 4 1;
#X connect 7 0 6 1;
#X connect 8 0 4 0;
#X connect 8 0 6 0;
#X connect 8 0 3 0;
#X connect 8 0 7 0;
#X connect 9 0 8 0;
#X connect 9 0 15 0;
#X connect 9 0 32 0;
#X connect 9 0 39 0;
#X connect 9 0 37 0;
#X connect 10 0 16 0;
#X connect 11 0 14 0;
#X connect 12 0 11 0;
#X connect 13 0 42 0;
#X connect 14 0 13 0;
#X connect 15 0 11 1;
#X connect 16 0 5 0;
#X connect 17 0 16 1;
#X connect 18 0 10 0;
#X connect 21 0 22 0;
#X connect 22 0 24 0;
#X connect 24 0 23 0;
#X connect 26 0 27 0;
#X connect 27 1 2 0;
#X connect 29 1 31 0;
#X connect 30 0 26 0;
#X connect 31 0 40 0;
#X connect 32 0 33 0;
#X connect 33 0 34 0;
#X connect 34 0 13 1;
#X connect 34 1 44 0;
#X connect 35 0 36 0;
#X connect 36 1 38 0;
#X connect 37 0 35 0;
#X connect 38 0 3 0;
#X connect 39 0 29 1;
#X connect 41 0 3 0;
#X connect 41 0 4 0;
#X connect 41 0 6 0;
#X connect 41 0 7 0;
#X connect 43 0 10 0;
#X connect 45 0 17 0;
