#N canvas 0 32 1728 1057 12;
#X declare -path ./bop;
#X declare -path ./pdfm;
#X declare -path ./newbop/bop.p;
#X obj 40 25 declare -path ./bop;
#X obj 47 53 declare -path ./pdfm;
#X obj 666 263 fm-operator;
#A saved 349.228 1 1 1 0 0.3 0.152542 0.5 0.8 0.2 0 0 0.092437;
#X msg 666 229 fm \$1;
#X obj 831 265 fm-operator;
#A saved 293.665 1 1 1 0 1 0.01 0.59322 0.8 0.2 0.159664 1 0.0168067;
#X obj 665 842 clip~ -0.9 0.9;
#X obj 665 807 *~ 0.5;
#X obj 996 267 fm-operator;
#A saved 293.665 1 1 2 0 1 0.355932 0.59322 0.8 0.2 0 1 0.0168067;
#X obj 1153 267 fm-operator;
#A saved 293.665 1 1 3 0 1 0 0.59322 0.8 0.2 0 0 0.00840336;
#X msg 807 195 62 127;
#X obj 430 528 *~;
#X obj 431 464 noise~;
#X obj 430 599 lop~ 100;
#X obj 430 562 *~ 0.1;
#X msg 448 500 0.1;
#X obj 622 32 loadbang;
#X obj 667 711 bp~ 70 1;
#X obj 595 934 throw~ left;
#X obj 670 936 throw~ right;
#X obj 329 23 inlet;
#X obj 329 53 == \$1;
#X obj 329 109 switch~;
#X obj 329 79 tgl 16 0 empty empty ENABLE 20 10 0 10 #00ff04 #000000 #000000 0 1;
#X floatatom 241 373 5 0 0 0 - - - 0;
#X msg 241 394 noteslider \$1;
#X obj 244 347 hsl 128 15 0 1 0 0 empty plant1-slider r\ plant1-slider -2 -8 0 10 #fcfcfc #000000 #000000 0 1;
#X obj 23 88 declare -path ./newbop/bop.p;
#X obj 23 123 bop.p.blineseq;
#X obj 23 157 bop.p.bline~;
#X text 96 328 noteslider 0 - 1 \; chord 0 - 15 \; shuffle 0 - 1 \; root 0 - 127 \; octaves 0 - 6 \; velocity 0 - 1 \; duration 0 - 1 \;;
#X obj 666 165 bop.p.blineseq;
#X obj 666 199 bop.p.bline~;
#X msg 666 138 loop 0.1 10000 0.3 10000;
#X obj 484 445 bop.p.blineseq;
#X obj 484 479 bop.p.bline~;
#X msg 196 650 noteslider \$1;
#X obj 116 530 bop.p.blineseq;
#X obj 116 564 bop.p.bline~;
#X obj 59 706 newbop/sub.bop.strum;
#X obj 196 751 stripnote;
#X obj 116 503 r drone-control;
#X obj 195 796 s \$0-fm;
#X msg 11 455 chord 15 \, root 62 \, octaves 1 \, shuffle 0 \, velocity 0.7 \, duration 1;
#X obj 600 255 r \$0-fm;
#X msg 484 420 loop 500 10000 5000 10000;
#X connect 2 0 16 0;
#X connect 3 0 2 0;
#X connect 4 0 2 1;
#X connect 5 0 17 0;
#X connect 5 0 18 0;
#X connect 6 0 5 0;
#X connect 7 0 2 1;
#X connect 8 0 2 1;
#X connect 9 0 2 0;
#X connect 9 0 4 0;
#X connect 9 0 7 0;
#X connect 9 0 8 0;
#X connect 10 0 13 0;
#X connect 11 0 10 0;
#X connect 12 0 6 0;
#X connect 13 0 12 0;
#X connect 14 0 10 1;
#X connect 15 0 9 0;
#X connect 15 0 14 0;
#X connect 15 0 32 0;
#X connect 15 0 44 0;
#X connect 15 0 42 0;
#X connect 16 0 6 0;
#X connect 19 0 20 0;
#X connect 20 0 22 0;
#X connect 22 0 21 0;
#X connect 23 0 24 0;
#X connect 25 0 23 0;
#X connect 27 0 28 0;
#X connect 30 0 31 0;
#X connect 31 1 3 0;
#X connect 32 0 30 0;
#X connect 33 0 34 0;
#X connect 34 1 12 1;
#X connect 35 0 38 1;
#X connect 36 0 37 0;
#X connect 37 1 35 0;
#X connect 38 1 39 0;
#X connect 39 0 41 0;
#X connect 40 0 36 0;
#X connect 42 0 38 1;
#X connect 43 0 2 0;
#X connect 44 0 33 0;
