#N canvas 112 171 815 690 12;
#X obj 46 56 inlet;
#X obj 448 58 inlet;
#X obj 52 111 bng 16 250 50 0 empty empty empty 0 -8 0 10 #fcfcfc #000000 #000000;
#X obj 52 158 file patchpath;
#X obj 51 242 list prepend open;
#X obj 51 263 list append c;
#X obj 51 294 list trim;
#X obj 50 322 file handle;
#X msg 259 276 close;
#X obj 51 135 t b b, f 35;
#X text 97 55 make file;
#X text 497 60 delete file;
#X obj 52 206 makefilename %s/\$1;
#X obj 452 117 bng 16 250 50 0 empty empty empty 0 -8 0 10 #fcfcfc #000000 #000000;
#X obj 452 160 file patchpath;
#X obj 452 249 file delete;
#X obj 453 206 makefilename %s/\$1;
#X connect 0 0 2 0;
#X connect 1 0 13 0;
#X connect 2 0 9 0;
#X connect 3 0 12 0;
#X connect 4 0 5 0;
#X connect 5 0 6 0;
#X connect 6 0 7 0;
#X connect 8 0 7 0;
#X connect 9 0 3 0;
#X connect 9 1 8 0;
#X connect 12 0 4 0;
#X connect 13 0 14 0;
#X connect 14 0 16 0;
#X connect 16 0 15 0;
