#N canvas 491 121 812 775 10;
#X declare -path ./bop;
#X declare -path ./bop;
#X floatatom 141 480 5 0 0 0 - - - 0;
#X floatatom 41 480 5 0 0 0 - - - 0;
#X text 181 480 baseline;
#X text 81 480 input;
#X obj 41 530 abs;
#X obj 40 186 -;
#X obj 40 221 abs;
#X obj 41 360 float, f 11;
#X obj 41 95 t f f b f, f 11;
#X obj 59 149 float;
#X obj 41 290 sel 1 0;
#X obj 61 320 bng 15 250 50 0 empty empty SPIKE! 17 7 0 10 #fcfcfc #000000 #000000;
#X text 151 200 filter spikes;
#X text 331 460 auto-calibrate;
#X floatatom 71 240 5 0 0 2 spike-thresh - - 0;
#X text 65 629 scale;
#X obj 237 351 t b b;
#X obj 235 377 del 100;
#X msg 231 410 2000;
#X msg 272 410 1;
#X obj 237 300 r calibrate;
#X obj 237 325 bng 15 250 50 0 empty empty empty 17 7 0 10 #fcfcfc #000000 #000000;
#X obj 42 23 inlet;
#X obj 39 716 outlet;
#X obj 41 510 /;
#X obj 41 260 < 5;
#X obj 141 440 sub.bop.util.slide 50 2000;
#X text 236 61 scaling for MPR121;
#X obj 200 150 declare -path ./bop;
#X obj 41 63 sub.bop.util.scale 55 150 15 30;
#X obj 400 62 declare -path ./bop;
#N canvas 92 129 450 300 mavg3 0;
#X obj 146 57 inlet;
#X obj 143 270 outlet;
#X obj 133 115 f;
#X obj 154 144 f;
#X obj 197 167 f;
#X obj 175 90 t f b b;
#X obj 169 185 +;
#X obj 143 204 +;
#X obj 144 227 / 3;
#X connect 0 0 5 0;
#X connect 2 0 3 1;
#X connect 2 0 7 0;
#X connect 3 0 4 1;
#X connect 3 0 6 0;
#X connect 4 0 6 1;
#X connect 5 0 2 0;
#X connect 5 1 3 0;
#X connect 5 2 4 0;
#X connect 6 0 7 1;
#X connect 7 0 8 0;
#X connect 8 0 1 0;
#X restore 40 585 pd mavg3;
#X text 82 554 sensitivity;
#X obj 41 555 pow 2;
#X obj 39 691 clip 0 1;
#X text 259 673 CEILING \; 0.4 = works pretty good \; 0.5 = more sensitive \;;
#X text 257 613 FLOOR \; 0.85 = clean \; 0.9 = more sensitive \, some bloops \;;
#X obj 40 660 sub.bop.util.scale 0.9 0.5 0 1;
#X connect 0 0 24 1;
#X connect 1 0 24 0;
#X connect 4 0 33 0;
#X connect 5 0 6 0;
#X connect 6 0 25 0;
#X connect 7 0 1 0;
#X connect 7 0 26 0;
#X connect 8 0 9 1;
#X connect 8 1 5 0;
#X connect 8 2 9 0;
#X connect 8 3 7 1;
#X connect 9 0 5 1;
#X connect 10 0 7 0;
#X connect 10 1 11 0;
#X connect 14 0 25 1;
#X connect 16 0 17 0;
#X connect 16 1 19 0;
#X connect 17 0 18 0;
#X connect 18 0 26 2;
#X connect 19 0 26 2;
#X connect 20 0 21 0;
#X connect 21 0 16 0;
#X connect 22 0 29 0;
#X connect 24 0 4 0;
#X connect 25 0 10 0;
#X connect 26 0 0 0;
#X connect 29 0 8 0;
#X connect 31 0 37 0;
#X connect 33 0 31 0;
#X connect 34 0 23 0;
#X connect 37 0 34 0;
