#N canvas 442 130 970 798 12;
#X floatatom 1110 181 4 0 0 0 - - - 0;
#X text 77 92 /;
#X obj 1110 150 /, f 6;
#X obj 1153 99 t b f;
#X floatatom 98 92 5 1 100 2 divisor \$0-to-divisor \$0-from-divisor 0;
#X floatatom 32 92 5 1 100 2 dividend \$0-to-dividend \$0-from-dividend 0;
#X obj 859 271 *~;
#X floatatom 26 48 10 0 0 2 tune\ (hz) \$0-to-tune \$0-from-tune 0;
#X obj 864 45 sig~;
#X obj 111 47 tgl 19 1 \$0-from-track \$0-to-track track 0 -10 0 12 #fcfcfc #bbbbbb #000000 1 1;
#X obj 863 88 +~;
#X obj 914 147 *~;
#X obj 936 101 / 100;
#X floatatom 56 137 7 0 0 2 detune\ (%) \$0-to-detune \$0-from-detune 0;
#X obj 861 175 +~;
#X obj 848 887 outlet~;
#X obj 369 92 inlet;
#X obj 862 18 r \$0-from-tune;
#X obj 850 729 *~, f 14;
#X obj 865 485 osc~;
#X obj 859 368 +~, f 71;
#X obj 22 346 hsl 120 19 0 1 0 0 \$0-from-gain \$0-to-gain gain -2 10 0 12 #fcfcfc #bbbbbb #000000 0 1;
#X obj 1369 273 line~;
#X floatatom 1367 208 22 0 0 0 - - - 0;
#X msg 1369 243 \$1 100;
#X obj 1368 173 pow 4;
#X obj 1348 32 inlet~;
#X obj 1371 102 r \$0-from-fm;
#X obj 1357 315 *~;
#X obj 978 481 osc~ 0.5;
#X obj 985 606 *~;
#X obj 929 606 sig~ 1;
#X obj 942 642 -~;
#X obj 980 519 expr~ $v1 * 0.5 + 0.5;
#X obj 34 494 loadbang;
#X msg 34 530 1;
#X obj 887 767 r \$0-from-gain;
#X obj 96 591 s \$0-to-gain;
#X obj 848 802 *~;
#X obj 213 649 s \$0-to-fm;
#X obj 852 843 *~, f 53;
#X obj 470 505 loadbang;
#X obj 41 212 vsl 14 60 0 1 0 0 \$0-from-a \$0-to-a a 3 -9 0 12 #fcfcfc #bbbbbb #000000 0 1;
#X obj 64 213 vsl 14 60 0 1 0 0 \$0-from-d \$0-to-d d 3 -9 0 12 #fcfcfc #bbbbbb #000000 0 1;
#X obj 113 212 vsl 14 60 0 1 0 0 \$0-from-r \$0-to-r r 3 -9 0 12 #fcfcfc #bbbbbb #000000 0 1;
#X obj 87 211 vsl 14 60 0 1 0 0 \$0-from-s \$0-to-s s 3 -9 0 12 #fcfcfc #bbbbbb #000000 0 1;
#X obj 25 167 hsl 120 19 0 1 0 0 \$0-from-fm \$0-to-fm fm -2 10 0 12 #fcfcfc #bbbbbb #000000 0 1;
#X obj 1339 507 r from-peak-\$1;
#X obj 1304 476 sub.bop.util.scale 0 1 1 1000;
#X obj 1499 710 sub.bop.util.scale 0 1 -3 3;
#X obj 1225 755 sub.bop.en.adsr~ 1000 1 1000 0.5 1000 -3;
#X obj 1211 538 moses 1;
#X obj 1211 422 r \$0-velocity;
#X obj 1451 655 sub.bop.util.scale 0 1 1 3000;
#X obj 1378 567 sub.bop.util.scale 0 1 1 3000;
#X msg 577 543 0.2;
#X msg 545 572 0.8;
#X msg 502 594 0.5;
#X msg 452 627 0.01;
#X obj 23 289 hsl 120 19 0 1 0 0 \$0-from-lfo-speed \$0-to-lfo-speed lfo-speed -2 10 0 12 #fcfcfc #bbbbbb #000000 0 1;
#X obj 23 314 hsl 120 19 0 1 0 0 \$0-from-lfo-depth \$0-to-lfo-depth lfo-depth -2 10 0 12 #fcfcfc #bbbbbb #000000 0 1;
#X obj 1371 141 * 20;
#X obj 83 616 s \$0-to-track;
#X msg 215 533 0;
#X obj 51 639 s \$0-to-dividend;
#X obj 1118 37 r \$0-from-dividend;
#X obj 1151 63 r \$0-from-divisor;
#X obj 25 662 s \$0-to-divisor;
#X obj 81 1279 s \$0-to-tune;
#X obj 107 1250 s \$0-to-track;
#X obj 121 1218 s \$0-to-dividend;
#X obj 142 1192 s \$0-to-divisor;
#X obj 932 52 r \$0-from-detune;
#X obj 249 624 s \$0-to-detune;
#X obj 173 1159 s \$0-to-detune;
#X obj 419 137 s \$0-inlet;
#X obj 82 843 r \$0-inlet;
#X obj 211 1132 s \$0-to-fm;
#X obj 453 654 s \$0-to-a;
#X obj 502 624 s \$0-to-d;
#X obj 546 595 s \$0-to-s;
#X obj 582 568 s \$0-to-r;
#X obj 1304 446 r \$0-from-a;
#X obj 1378 542 r \$0-from-d;
#X obj 1416 597 r \$0-from-s;
#X obj 1451 623 r \$0-from-r;
#X obj 1499 686 r \$0-from-c;
#X obj 226 1099 s \$0-to-a;
#X obj 261 1073 s \$0-to-d;
#X obj 290 1041 s \$0-to-s;
#X obj 337 1014 s \$0-to-r;
#X obj 218 502 loadbang;
#X obj 287 563 s \$0-to-lfo-speed;
#X obj 251 588 s \$0-to-lfo-depth;
#X obj 372 989 s \$0-to-lfo-speed;
#X obj 430 961 s \$0-to-lfo-depth;
#X obj 82 885 route tune track dividend divisor detune fm a d s r lfo-speed lfo-depth gain, f 72;
#X obj 495 931 s \$0-to-gain;
#X obj 338 1799 r \$0-from-gain;
#X obj 257 1719 r \$0-from-r;
#X obj 244 1691 r \$0-from-s;
#X obj 225 1663 r \$0-from-d;
#X obj 212 1637 r \$0-from-a;
#X obj 200 1610 r \$0-from-fm;
#X obj 183 1583 r \$0-from-detune;
#X obj 168 1549 r \$0-from-divisor;
#X obj 148 1521 r \$0-from-dividend;
#X obj 133 1491 r \$0-from-track;
#X obj 110 1456 r \$0-from-tune;
#X obj 274 1745 r \$0-from-lfo-speed;
#X obj 308 1771 r \$0-from-lfo-depth;
#X text 2524 2643 comment;
#X obj 96 1912 savestate, f 13;
#X obj 54 2476 s \$0-to-tune;
#X obj 84 2440 s \$0-to-track;
#X obj 98 2408 s \$0-to-dividend;
#X obj 119 2382 s \$0-to-divisor;
#X obj 150 2349 s \$0-to-detune;
#X obj 188 2322 s \$0-to-fm;
#X obj 203 2289 s \$0-to-a;
#X obj 238 2263 s \$0-to-d;
#X obj 267 2231 s \$0-to-s;
#X obj 303 2204 s \$0-to-r;
#X obj 318 2179 s \$0-to-lfo-speed;
#X obj 356 2151 s \$0-to-lfo-depth;
#X obj 371 2121 s \$0-to-gain;
#X text 64 1364 ------------------------------ SAVESTATE ------------------------------------, f 80;
#X text 89 790 --------------------- MESSAGE FORWARDING --------------------, f 66;
#X text 149 441 --------------- INIT ----------------;
#X obj 89 1417 r \$0-savestate;
#X obj 184 1966 s \$0-savestate;
#X obj 90 1506 f;
#X obj 98 1863 pack f f f f f f f f f f f f f, f 32;
#X obj 95 2064 unpack f f f f f f f f f f f f f, f 38;
#X obj 91 1947 t b l, f 10;
#X obj 94 2023 list, f 10;
#X obj 89 1989 delay 50;
#X obj 979 407 r \$0-from-lfo-speed;
#X obj 1000 549 r \$0-from-lfo-depth;
#X obj 979 454 * 440;
#X obj 981 430 pow 4;
#X obj 37 37;
#X obj 1256 582 / 127;
#X obj 1221 804 *~;
#X obj 593 1090 spigot;
#X obj 594 1048 mtof;
#X obj 593 1119 s \$0-to-tune;
#X obj 600 978 unpack;
#X obj 639 1019 s \$0-velocity;
#X obj 632 1050 r \$0-from-track;
#X text 602 944 All other messages are MIDI notes;
#X connect 0 0 6 1;
#X connect 2 0 0 0;
#X connect 3 0 2 0;
#X connect 3 1 2 1;
#X connect 6 0 20 0;
#X connect 8 0 10 0;
#X connect 10 0 11 0;
#X connect 10 0 14 0;
#X connect 11 0 14 1;
#X connect 12 0 11 1;
#X connect 14 0 6 0;
#X connect 16 0 75 0;
#X connect 17 0 8 0;
#X connect 18 0 38 0;
#X connect 19 0 18 0;
#X connect 20 0 19 0;
#X connect 22 0 28 1;
#X connect 23 0 24 0;
#X connect 24 0 22 0;
#X connect 25 0 23 0;
#X connect 26 0 28 0;
#X connect 27 0 61 0;
#X connect 28 0 20 1;
#X connect 29 0 33 0;
#X connect 30 0 32 1;
#X connect 31 0 32 0;
#X connect 32 0 18 1;
#X connect 33 0 30 0;
#X connect 34 0 35 0;
#X connect 35 0 67 0;
#X connect 35 0 64 0;
#X connect 35 0 62 0;
#X connect 35 0 37 0;
#X connect 36 0 38 1;
#X connect 38 0 40 0;
#X connect 40 0 15 0;
#X connect 41 0 58 0;
#X connect 41 0 57 0;
#X connect 41 0 56 0;
#X connect 41 0 55 0;
#X connect 47 0 50 3;
#X connect 48 0 50 2;
#X connect 49 0 50 7;
#X connect 50 0 143 0;
#X connect 51 0 50 1;
#X connect 51 1 142 0;
#X connect 52 0 51 0;
#X connect 53 0 50 6;
#X connect 54 0 50 4;
#X connect 55 0 81 0;
#X connect 56 0 80 0;
#X connect 57 0 79 0;
#X connect 58 0 78 0;
#X connect 61 0 25 0;
#X connect 63 0 39 0;
#X connect 63 0 73 0;
#X connect 63 0 93 0;
#X connect 63 0 92 0;
#X connect 65 0 2 0;
#X connect 66 0 3 0;
#X connect 72 0 12 0;
#X connect 76 0 96 0;
#X connect 82 0 48 0;
#X connect 83 0 54 0;
#X connect 84 0 50 5;
#X connect 85 0 53 0;
#X connect 86 0 49 0;
#X connect 91 0 63 0;
#X connect 96 0 68 0;
#X connect 96 1 69 0;
#X connect 96 2 70 0;
#X connect 96 3 71 0;
#X connect 96 4 74 0;
#X connect 96 5 77 0;
#X connect 96 6 87 0;
#X connect 96 7 88 0;
#X connect 96 8 89 0;
#X connect 96 9 90 0;
#X connect 96 10 94 0;
#X connect 96 11 95 0;
#X connect 96 12 97 0;
#X connect 96 13 147 0;
#X connect 98 0 132 12;
#X connect 99 0 132 9;
#X connect 100 0 132 8;
#X connect 101 0 132 7;
#X connect 102 0 132 6;
#X connect 103 0 132 5;
#X connect 104 0 132 4;
#X connect 105 0 132 3;
#X connect 106 0 132 2;
#X connect 107 0 132 1;
#X connect 108 0 131 1;
#X connect 109 0 132 10;
#X connect 110 0 132 11;
#X connect 112 0 134 0;
#X connect 112 1 130 0;
#X connect 129 0 131 0;
#X connect 131 0 132 0;
#X connect 132 0 112 0;
#X connect 133 0 113 0;
#X connect 133 1 114 0;
#X connect 133 2 115 0;
#X connect 133 3 116 0;
#X connect 133 4 117 0;
#X connect 133 5 118 0;
#X connect 133 6 119 0;
#X connect 133 7 120 0;
#X connect 133 8 121 0;
#X connect 133 9 122 0;
#X connect 133 10 123 0;
#X connect 133 11 124 0;
#X connect 133 12 125 0;
#X connect 134 0 136 0;
#X connect 134 1 135 1;
#X connect 135 0 133 0;
#X connect 136 0 135 0;
#X connect 137 0 140 0;
#X connect 138 0 30 1;
#X connect 139 0 29 0;
#X connect 140 0 139 0;
#X connect 142 0 50 0;
#X connect 142 0 143 1;
#X connect 143 0 40 1;
#X connect 144 0 146 0;
#X connect 145 0 144 0;
#X connect 147 0 145 0;
#X connect 147 1 148 0;
#X connect 149 0 144 1;
#X coords 0 -1 1 1 150 370 1 10 10;
