#N canvas 2 66 1022 677 10;
#X declare -path /home/pi/Desktop/Playable-Streets-Toolkit/pure-data
;
#X declare -path /home/pi/Desktop/bop;
#X text 670 1880 comment;
#X obj 0 100 declare -path /home/pi/Desktop/Playable-Streets-Toolkit/pure-data
;
#X floatatom -299 751 5 0 0 0 - - -, f 5;
#X obj -90 1660 bop.reverb;
#A saved 0.711413 0.665761 2 0.115958 0.534886 0 0;
#X obj -309 812 bop.noteslider;
#A saved 4.46789 0 1.55435;
#X msg -299 772 noteslider \$1;
#X msg -80 780 noteslider \$1;
#X obj -90 1830 bop.mix;
#A saved 0 0.960126 0;
#X obj -309 912 bop.notefx;
#A saved -8.4878 -0.292683 4 0 127 0 0;
#X obj -300 100 loadbang;
#X obj -90 1910 bop;
#A saved 0;
#X obj -80 810 bop.noteslider;
#A saved 5.81651 0 1.80163;
#X obj -79 912 bop.notefx;
#A saved -8.78049 1.46341 4 0 127 0 0;
#X obj -79 1092 bop.glok;
#A saved 1;
#X obj 150 810 bop.noteslider;
#A saved 4.59633 0 1.80163;
#X obj 151 912 bop.notefx;
#A saved -8.4878 -2.85366 4 0 127 0 0;
#X msg 150 776 noteslider \$1;
#X obj 151 1122 bop.synth;
#A saved 0.0186956 1 0.228261 0.331522 0.048913 0 0 0 0.279031 0.050877
0.0534886 0.0376779 1 0.01 0.01;
#X msg -300 127 1;
#X msg 0 205 \; pd dsp \$1;
#X msg 0 182 1;
#X obj 0 159 loadbang;
#X obj -309 1102 bop.synth;
#A saved 0.0196552 1 0.195652 0.353261 0.0815217 0 0 0 0.0262107 0.182335
0.358383 0.621553 1 0.0653458 0.01;
#X obj 0 136 declare -path /home/pi/Desktop/bop;
#X text -230 460 pin 4/A5;
#X obj -300 457 s plant1;
#X obj -300 640 r plant1;
#X obj -100 230 s calibrate;
#X obj -100 160 bng 56 250 50 0 empty empty empty 17 7 0 10 #fcfcfc
#000000 #000000;
#X obj -100 100 loadbang;
#X obj -100 130 del 5000;
#X obj -300 700 sub.plants.filter-and-scale;
#X floatatom -79 751 5 0 0 0 - - -, f 5;
#X obj -80 700 sub.plants.filter-and-scale;
#X floatatom 151 751 5 0 0 0 - - -, f 5;
#X obj 150 700 sub.plants.filter-and-scale;
#X obj -80 640 r plant2;
#X obj 150 640 r plant3;
#X floatatom -70 670 5 0 0 0 - - -, f 5;
#X obj -270 430 s plant2;
#X obj -310 1440 bop.mix;
#A saved 0 1.04367 0.724409;
#X obj -90 1450 bop.mix;
#A saved 0 1.13449 0;
#X obj 150 1460 bop.mix;
#A saved 0 1.04367 -0.582677;
#X obj -240 400 s plant3;
#X text -210 430 pin 15/A8;
#X floatatom 170 670 5 0 0 0 - - -, f 5;
#X obj -300 235 oscparse;
#X obj -300 262 route list;
#X obj -300 316 route touches;
#X obj -300 208 mrpeach/slipdec 65536;
#X msg -246 154 close;
#X obj -300 181 comport 1 115200;
#X msg -300 154 open \$1;
#X obj -300 343 t b l;
#X obj -300 289 zl slice 1;
#X obj -300 370 unpack 0 0 0 0 0 0 0 0, f 32;
#X floatatom -280 670 5 0 0 0 - - -, f 5;
#X text -180 400 pin 12/A11;
#X connect 2 0 5 0;
#X connect 3 0 7 0;
#X connect 3 1 7 1;
#X connect 4 2 8 2;
#X connect 5 0 4 3;
#X connect 6 0 11 3;
#X connect 7 0 10 0;
#X connect 7 1 10 1;
#X connect 8 2 22 2;
#X connect 9 0 18 0;
#X connect 11 2 12 2;
#X connect 12 2 13 2;
#X connect 13 0 41 0;
#X connect 13 1 41 1;
#X connect 14 2 15 2;
#X connect 15 2 17 2;
#X connect 16 0 14 3;
#X connect 17 0 42 0;
#X connect 17 1 42 1;
#X connect 18 0 52 0;
#X connect 20 0 19 0;
#X connect 21 0 20 0;
#X connect 22 0 40 0;
#X connect 22 1 40 1;
#X connect 26 0 56 0;
#X connect 26 0 31 0;
#X connect 28 0 27 0;
#X connect 29 0 30 0;
#X connect 30 0 28 0;
#X connect 31 0 2 0;
#X connect 32 0 6 0;
#X connect 33 0 32 0;
#X connect 34 0 16 0;
#X connect 35 0 34 0;
#X connect 36 0 38 0;
#X connect 36 0 33 0;
#X connect 37 0 45 0;
#X connect 37 0 35 0;
#X connect 40 0 3 0;
#X connect 40 1 3 1;
#X connect 41 0 3 0;
#X connect 41 1 3 1;
#X connect 42 0 3 0;
#X connect 42 1 3 1;
#X connect 46 0 47 0;
#X connect 47 0 54 0;
#X connect 48 0 53 0;
#X connect 49 0 46 0;
#X connect 50 0 51 0;
#X connect 51 0 49 0;
#X connect 52 0 51 0;
#X connect 53 1 55 0;
#X connect 54 1 48 0;
#X connect 55 0 25 0;
#X connect 55 1 39 0;
#X connect 55 3 43 0;
