#N canvas 2 66 1022 677 10;
#X declare -path /home/pi/Desktop/bop;
#X floatatom 141 480 5 0 0 0 - - -, f 5;
#X floatatom 41 480 5 0 0 0 - - -, f 5;
#X text 181 480 baseline;
#X text 81 480 input;
#X floatatom 41 620 5 0 0 0 - - -, f 5;
#X obj 41 530 abs;
#X obj 40 186 -;
#X obj 40 221 abs;
#X obj 41 360 float, f 11;
#X obj 41 80 t f f b f, f 11;
#X obj 59 149 float;
#X obj 41 290 sel 1 0;
#X obj 61 320 bng 15 250 50 0 empty empty SPIKE! 17 7 0 10 #fcfcfc
#000000 #000000;
#X text 151 200 filter spikes;
#X text 331 460 auto-calibrate;
#X floatatom 71 240 5 0 0 2 spike-thresh - -, f 5;
#X text 151 610 scale;
#X obj 237 351 t b b;
#X obj 235 377 del 100;
#X msg 231 410 2000;
#X msg 272 410 1;
#X obj 237 300 r calibrate;
#X obj 237 325 bng 15 250 50 0 empty empty empty 17 7 0 10 #fcfcfc
#000000 #000000;
#X floatatom 81 530 5 0 0 1 sensitivity - -, f 5;
#X obj 13 26 inlet;
#X obj 13 726 outlet;
#X obj 200 150 declare -path /home/pi/Desktop/bop;
#X obj 41 510 /;
#X obj 41 260 < 5;
#X obj 141 440 sub.bop.util.slide 50 2000;
#X obj 41 550 pow 1.6;
#X obj 41 580 mavg 3;
#X obj 42 656 scale 0.85 0.4 0 1;
#X connect 0 0 27 1;
#X connect 1 0 27 0;
#X connect 4 0 32 0;
#X connect 5 0 30 0;
#X connect 6 0 7 0;
#X connect 7 0 28 0;
#X connect 8 0 1 0;
#X connect 8 0 29 0;
#X connect 9 0 10 1;
#X connect 9 1 6 0;
#X connect 9 2 10 0;
#X connect 9 3 8 1;
#X connect 10 0 6 1;
#X connect 11 0 8 0;
#X connect 11 1 12 0;
#X connect 15 0 28 1;
#X connect 17 0 18 0;
#X connect 17 1 20 0;
#X connect 18 0 19 0;
#X connect 19 0 29 2;
#X connect 20 0 29 2;
#X connect 21 0 22 0;
#X connect 22 0 17 0;
#X connect 23 0 30 1;
#X connect 24 0 9 0;
#X connect 27 0 5 0;
#X connect 28 0 11 0;
#X connect 29 0 0 0;
#X connect 30 0 31 0;
#X connect 31 0 4 0;
#X connect 32 0 25 0;
