#N canvas 335 264 907 398 12;
#X obj 87 75 inlet;
#X obj 211 234 outlet;
#X obj 87 196 s \$1-midi-in;
#X obj 211 197 r \$1-midi-out;
#X text 33 9 recieves messages from parent patcher \, provides forwarding and saving for param \, toggle \, number;
#X obj 319 262 s \$1-stop;
#X obj 319 228 bng 19 250 50 0 empty empty empty 0 -10 0 12 #fcfcfc #000000 #000000;
#X obj 319 197 route stop dump, f 22;
#X obj 394 262 s \$1-dump;
#X obj 394 228 bng 19 250 50 0 empty empty empty 0 -10 0 12 #fcfcfc #000000 #000000;
#X obj 87 120 route list, f 29;
#X text 315 60 noteslider \$1 \; to \; \$0-get-noteslider;
#X obj 617 396 f \$1;
#X obj 617 360 loadbang;
#X obj 687 361 bng 19 250 50 0 empty empty empty 0 -10 0 12 #fcfcfc #000000 #000000;
#X msg 476 290 \$2 \$1;
#X obj 477 320 unpack f s, f 17;
#X msg 591 456 \$2-get-\$1;
#X obj 591 425 pack s f, f 17;
#X obj 477 552 send;
#X obj 591 489 symbol;
#X obj 471 232 list;
#X connect 0 0 10 0;
#X connect 3 0 1 0;
#X connect 6 0 5 0;
#X connect 7 0 6 0;
#X connect 7 1 9 0;
#X connect 7 2 21 0;
#X connect 9 0 8 0;
#X connect 10 0 2 0;
#X connect 10 1 7 0;
#X connect 12 0 18 1;
#X connect 13 0 12 0;
#X connect 14 0 12 0;
#X connect 15 0 16 0;
#X connect 16 0 19 0;
#X connect 16 1 18 0;
#X connect 17 0 20 0;
#X connect 18 0 17 0;
#X connect 20 0 19 1;
#X connect 21 0 15 0;
