#N canvas 564 317 907 329 12;
#X obj 87 75 inlet;
#X obj 287 290 outlet;
#X obj 307 199 s \$1-params;
#X obj 87 196 s \$1-midi-in;
#X obj 307 248 r \$1-midi-out;
#X text 33 9 recieves messages from parent patcher \, provides forwarding and saving for param \, toggle \, number;
#X obj 481 289 s \$1-stop;
#X obj 481 255 bng 19 250 50 0 empty empty empty 0 -10 0 12 #fcfcfc #000000 #000000;
#X obj 481 224 route stop dump, f 22;
#X obj 556 289 s \$1-dump;
#X obj 556 255 bng 19 250 50 0 empty empty empty 0 -10 0 12 #fcfcfc #000000 #000000;
#X obj 87 120 route list, f 29;
#X text 315 60 noteslider \$1 \; to \; \$0-get-noteslider;
#X msg 689 201 \$2-get-\$1;
#X obj 715 141 f \$1;
#X obj 715 105 loadbang;
#X obj 689 226 print;
#X obj 778 105 bng 19 250 50 0 empty empty empty 0 -10 0 12 #fcfcfc #000000 #000000;
#X obj 689 63 unpack, f 17;
#X obj 689 170 pack s f f, f 17;
#X connect 0 0 11 0;
#X connect 4 0 1 0;
#X connect 7 0 6 0;
#X connect 8 0 7 0;
#X connect 8 1 10 0;
#X connect 10 0 9 0;
#X connect 11 0 3 0;
#X connect 11 1 1 0;
#X connect 11 1 2 0;
#X connect 11 1 8 0;
#X connect 11 1 18 0;
#X connect 13 0 16 0;
#X connect 14 0 19 1;
#X connect 15 0 14 0;
#X connect 17 0 14 0;
#X connect 18 0 19 0;
#X connect 19 0 13 0;
